<svg xmlns="http://www.w3.org/2000/svg" xmlns:xlink="http://www.w3.org/1999/xlink" width="500" zoomAndPan="magnify" viewBox="0 0 375 374.999991" height="500" preserveAspectRatio="xMidYMid meet" version="1.0"><defs><g/><clipPath id="ae8cc28399"><path d="M 79.574219 31.617188 L 295.574219 31.617188 L 295.574219 246.867188 L 79.574219 246.867188 Z M 79.574219 31.617188 " clip-rule="nonzero"/></clipPath></defs><g clip-path="url(#ae8cc28399)"><path fill="#893616" d="M 245.335938 83.398438 C 241.28125 81.636719 236.613281 80.417969 231.34375 79.925781 C 226.496094 79.476562 221.136719 79.644531 215.289062 80.59375 C 213.433594 80.890625 211.648438 81.179688 209.914062 81.460938 C 186.324219 85.320312 173.84375 87.351562 147.628906 79.117188 C 143.757812 77.898438 140.425781 76.585938 137.25 75.320312 C 133.089844 73.683594 129.175781 72.128906 124.6875 71.015625 C 124.125 70.886719 128.304688 72.683594 132.738281 74.96875 C 137.636719 77.503906 143.355469 80.121094 147.101562 81.292969 C 153.488281 83.300781 160.304688 85.355469 166.839844 86.433594 C 173.289062 87.492188 179.453125 87.617188 186.09375 87.285156 C 193.449219 86.914062 201.03125 85.738281 210.363281 84.214844 C 212.097656 83.933594 213.882812 83.644531 215.738281 83.347656 C 221.351562 82.441406 226.460938 82.277344 231.078125 82.707031 C 236.023438 83.160156 240.402344 84.3125 244.210938 85.96875 C 249.988281 88.484375 254.308594 92.167969 257.308594 96.378906 C 264.484375 106.425781 263.605469 123.253906 252.789062 130.578125 C 249.507812 132.796875 246.515625 133.59375 246.515625 133.59375 C 246.515625 133.59375 246.523438 133.585938 246.535156 133.585938 C 248.777344 133.242188 250.878906 132.542969 252.796875 131.550781 C 255.207031 130.296875 257.265625 128.648438 258.972656 126.710938 C 267.707031 116.730469 265.9375 101.621094 257.449219 92.054688 C 254.195312 88.386719 250.035156 85.441406 245.335938 83.398438 Z M 248.980469 51.339844 C 244.933594 48.214844 240.570312 45.445312 235.996094 43.070312 C 231.351562 40.648438 226.488281 38.632812 221.515625 37.042969 C 220.960938 36.867188 220.382812 36.683594 219.757812 36.5 C 219.160156 36.316406 218.5625 36.140625 217.972656 35.976562 C 217.367188 35.800781 216.765625 35.632812 216.160156 35.464844 C 215.554688 35.300781 214.9375 35.140625 214.339844 34.984375 C 213.476562 34.765625 212.613281 34.554688 211.769531 34.359375 C 210.925781 34.167969 210.066406 33.976562 209.195312 33.800781 C 208.339844 33.625 207.476562 33.457031 206.617188 33.308594 C 205.746094 33.152344 204.875 33 204.003906 32.871094 C 203.132812 32.738281 202.261719 32.617188 201.390625 32.503906 C 200.519531 32.386719 199.648438 32.28125 198.769531 32.195312 C 197.882812 32.097656 197.003906 32.019531 196.132812 31.949219 C 195.269531 31.886719 194.390625 31.828125 193.507812 31.773438 C 192.621094 31.730469 191.742188 31.695312 190.871094 31.667969 C 189.984375 31.640625 189.101562 31.625 188.222656 31.617188 C 187.34375 31.617188 186.464844 31.617188 185.574219 31.632812 C 184.695312 31.652344 183.816406 31.675781 182.9375 31.722656 C 182.066406 31.757812 181.1875 31.808594 180.296875 31.871094 C 179.425781 31.921875 178.539062 31.992188 177.640625 32.082031 C 176.753906 32.160156 175.875 32.257812 175.003906 32.351562 C 174.113281 32.457031 173.234375 32.570312 172.363281 32.695312 C 171.476562 32.816406 170.597656 32.957031 169.726562 33.097656 C 168.84375 33.246094 167.972656 33.40625 167.113281 33.5625 C 166.25 33.730469 165.378906 33.90625 164.519531 34.097656 C 163.664062 34.28125 162.792969 34.476562 161.933594 34.6875 C 161.050781 34.894531 160.199219 35.113281 159.363281 35.34375 C 145.507812 39.050781 132.5 45.523438 121.179688 54.300781 C 120.476562 54.855469 119.789062 55.398438 119.121094 55.941406 C 118.441406 56.496094 117.773438 57.054688 117.097656 57.632812 C 116.4375 58.203125 115.777344 58.78125 115.128906 59.371094 C 114.46875 59.96875 113.816406 60.5625 113.183594 61.160156 C 112.550781 61.765625 111.917969 62.378906 111.300781 63 C 110.667969 63.625 110.050781 64.246094 109.453125 64.878906 C 108.855469 65.5 108.257812 66.140625 107.660156 66.796875 C 107.070312 67.449219 106.480469 68.113281 105.898438 68.78125 C 105.320312 69.457031 104.746094 70.128906 104.195312 70.796875 C 103.640625 71.472656 103.085938 72.15625 102.539062 72.859375 C 102.003906 73.550781 101.464844 74.253906 100.9375 74.960938 C 100.410156 75.671875 99.890625 76.382812 99.390625 77.09375 C 98.871094 77.820312 98.371094 78.550781 97.886719 79.269531 C 97.402344 79.996094 96.917969 80.742188 96.445312 81.488281 C 95.976562 82.222656 95.511719 82.96875 95.054688 83.734375 C 94.605469 84.484375 94.15625 85.25 93.71875 86.019531 L 93.628906 86.179688 C 93.214844 86.898438 92.820312 87.617188 92.433594 88.335938 C 92.019531 89.105469 91.613281 89.898438 91.210938 90.6875 C 90.816406 91.476562 90.425781 92.265625 90.058594 93.054688 C 89.679688 93.832031 89.308594 94.640625 88.941406 95.464844 C 88.589844 96.269531 88.238281 97.078125 87.902344 97.886719 C 87.558594 98.710938 87.226562 99.527344 86.910156 100.347656 C 86.59375 101.171875 86.285156 102.007812 85.976562 102.839844 C 85.675781 103.671875 85.386719 104.507812 85.113281 105.332031 C 84.832031 106.179688 84.570312 107.015625 84.3125 107.855469 C 84.058594 108.679688 83.8125 109.53125 83.574219 110.398438 C 83.335938 111.242188 83.109375 112.101562 82.890625 112.953125 C 82.679688 113.820312 82.464844 114.667969 82.273438 115.519531 C 82.078125 116.378906 81.894531 117.238281 81.726562 118.105469 C 81.550781 118.976562 81.386719 119.84375 81.234375 120.710938 C 81.085938 121.570312 80.945312 122.449219 80.8125 123.316406 C 80.679688 124.191406 80.558594 125.070312 80.453125 125.9375 C 80.347656 126.796875 80.242188 127.675781 80.152344 128.558594 C 80.066406 129.4375 79.996094 130.3125 79.925781 131.183594 C 79.863281 132.066406 79.800781 132.945312 79.757812 133.820312 C 79.714844 134.699219 79.6875 135.574219 79.660156 136.453125 C 79.644531 137.320312 79.625 138.199219 79.625 139.082031 C 79.625 139.953125 79.632812 140.835938 79.660156 141.722656 C 79.679688 142.609375 79.714844 143.484375 79.75 144.355469 C 79.792969 145.214844 79.84375 146.089844 79.914062 146.976562 C 79.976562 147.84375 80.046875 148.722656 80.136719 149.589844 C 80.222656 150.464844 80.320312 151.34375 80.425781 152.210938 C 80.53125 153.078125 80.65625 153.945312 80.785156 154.824219 C 80.910156 155.683594 81.050781 156.550781 81.199219 157.410156 C 81.359375 158.296875 81.515625 159.15625 81.683594 160.007812 C 81.851562 160.855469 82.035156 161.707031 82.230469 162.578125 C 82.421875 163.433594 82.632812 164.292969 82.84375 165.136719 C 83.054688 165.996094 83.285156 166.847656 83.515625 167.6875 C 83.75 168.53125 83.996094 169.382812 84.253906 170.222656 C 84.507812 171.054688 84.773438 171.898438 85.054688 172.730469 C 85.324219 173.5625 85.617188 174.386719 85.914062 175.230469 C 86.214844 176.046875 86.523438 176.878906 86.839844 177.710938 C 87.164062 178.546875 87.5 179.371094 87.832031 180.175781 C 88.167969 180.992188 88.519531 181.808594 88.871094 182.613281 C 89.238281 183.429688 89.609375 184.238281 89.988281 185.035156 C 90.367188 185.832031 90.753906 186.628906 91.140625 187.410156 C 91.535156 188.191406 91.949219 188.980469 92.363281 189.761719 C 92.777344 190.53125 93.199219 191.304688 93.636719 192.074219 C 94.078125 192.855469 94.527344 193.621094 94.964844 194.355469 C 95.414062 195.109375 95.871094 195.855469 96.355469 196.609375 C 96.824219 197.355469 97.296875 198.082031 97.78125 198.8125 C 98.273438 199.546875 98.773438 200.273438 99.277344 200.992188 C 99.785156 201.703125 100.296875 202.414062 100.824219 203.125 C 101.34375 203.824219 101.878906 204.527344 102.417969 205.21875 C 102.972656 205.929688 103.515625 206.613281 104.070312 207.28125 C 104.617188 207.957031 105.179688 208.621094 105.757812 209.296875 C 106.332031 209.957031 106.910156 210.613281 107.5 211.253906 C 108.097656 211.921875 108.695312 212.5625 109.296875 213.191406 C 109.902344 213.824219 110.519531 214.457031 111.140625 215.078125 C 111.765625 215.699219 112.390625 216.3125 113.023438 216.917969 C 113.648438 217.515625 114.300781 218.113281 114.960938 218.707031 C 115.609375 219.296875 116.269531 219.875 116.9375 220.453125 C 117.617188 221.039062 118.292969 221.609375 118.960938 222.15625 C 119.640625 222.714844 120.335938 223.257812 121.027344 223.804688 C 121.722656 224.347656 122.429688 224.882812 123.140625 225.40625 C 123.851562 225.933594 124.566406 226.453125 125.277344 226.953125 C 126.007812 227.46875 126.738281 227.960938 127.460938 228.441406 C 128.191406 228.933594 128.9375 229.414062 129.683594 229.890625 C 130.421875 230.355469 131.179688 230.816406 131.9375 231.273438 C 132.703125 231.730469 133.46875 232.167969 134.230469 232.605469 C 134.996094 233.035156 135.78125 233.46875 136.554688 233.878906 C 137.328125 234.292969 138.121094 234.703125 138.910156 235.097656 C 139.703125 235.5 140.496094 235.886719 141.289062 236.253906 C 142.078125 236.632812 142.886719 237 143.707031 237.359375 C 144.515625 237.71875 145.324219 238.070312 146.140625 238.402344 C 146.960938 238.746094 147.789062 239.070312 148.613281 239.394531 C 149.433594 239.710938 150.269531 240.015625 151.105469 240.316406 C 151.9375 240.613281 152.773438 240.902344 153.609375 241.183594 C 154.453125 241.457031 155.300781 241.726562 156.136719 241.980469 C 156.96875 242.234375 157.816406 242.480469 158.6875 242.71875 C 159.53125 242.953125 160.390625 243.183594 161.246094 243.394531 C 162.109375 243.613281 162.96875 243.816406 163.832031 244.007812 C 164.683594 244.199219 165.546875 244.382812 166.417969 244.558594 C 167.289062 244.734375 168.160156 244.894531 169.03125 245.050781 C 169.890625 245.199219 170.761719 245.339844 171.644531 245.472656 C 172.523438 245.601562 173.394531 245.71875 174.265625 245.832031 C 175.136719 245.9375 176.015625 246.03125 176.902344 246.121094 C 177.78125 246.207031 178.660156 246.289062 179.53125 246.347656 C 180.421875 246.417969 181.300781 246.472656 182.179688 246.515625 C 183.058594 246.558594 183.941406 246.59375 184.820312 246.621094 C 185.691406 246.636719 186.570312 246.65625 187.457031 246.65625 C 188.328125 246.65625 189.21875 246.648438 190.105469 246.621094 C 190.996094 246.601562 191.882812 246.566406 192.746094 246.523438 C 193.617188 246.488281 194.484375 246.429688 195.375 246.367188 C 196.246094 246.304688 197.125 246.226562 197.996094 246.148438 C 198.875 246.058594 199.753906 245.964844 200.625 245.847656 C 201.496094 245.742188 202.367188 245.628906 203.246094 245.5 C 204.109375 245.367188 204.980469 245.234375 205.84375 245.078125 C 206.730469 244.929688 207.601562 244.769531 208.445312 244.59375 C 209.300781 244.429688 210.160156 244.253906 211.023438 244.050781 C 211.886719 243.859375 212.746094 243.65625 213.59375 243.445312 C 214.453125 243.234375 215.296875 243.007812 216.152344 242.769531 C 217.003906 242.542969 217.851562 242.296875 218.695312 242.035156 C 219.53125 241.789062 220.375 241.515625 221.207031 241.246094 C 222.035156 240.972656 222.871094 240.683594 223.714844 240.386719 C 224.535156 240.085938 225.371094 239.78125 226.203125 239.457031 C 227.042969 239.140625 227.867188 238.804688 228.675781 238.472656 C 229.496094 238.140625 230.3125 237.789062 231.121094 237.429688 C 231.941406 237.070312 232.75 236.703125 233.550781 236.324219 C 234.351562 235.949219 235.140625 235.5625 235.933594 235.167969 C 236.71875 234.773438 237.5 234.371094 238.28125 233.957031 C 239.054688 233.546875 239.839844 233.125 240.613281 232.6875 C 241.394531 232.246094 242.164062 231.800781 242.910156 231.363281 C 243.65625 230.914062 244.40625 230.449219 245.160156 229.976562 C 245.910156 229.511719 246.648438 229.03125 247.371094 228.546875 C 248.109375 228.054688 248.839844 227.566406 249.558594 227.054688 C 250.273438 226.554688 250.992188 226.039062 251.695312 225.523438 C 252.410156 225.003906 253.105469 224.46875 253.800781 223.933594 C 254.511719 223.382812 255.199219 222.839844 255.867188 222.285156 C 256.542969 221.742188 257.210938 221.171875 257.890625 220.601562 C 258.546875 220.023438 259.210938 219.453125 259.859375 218.867188 C 260.519531 218.269531 261.160156 217.671875 261.796875 217.066406 C 262.4375 216.472656 263.0625 215.859375 263.6875 215.234375 C 264.320312 214.613281 264.925781 213.980469 265.53125 213.359375 C 266.132812 212.726562 266.730469 212.085938 267.328125 211.429688 C 267.917969 210.78125 268.507812 210.121094 269.085938 209.457031 C 269.667969 208.773438 270.238281 208.105469 270.785156 207.429688 C 271.347656 206.765625 271.890625 206.070312 272.4375 205.378906 C 272.984375 204.6875 273.519531 203.984375 274.046875 203.273438 C 274.574219 202.5625 275.09375 201.855469 275.597656 201.144531 C 276.113281 200.40625 276.617188 199.679688 277.101562 198.960938 C 277.585938 198.230469 278.066406 197.496094 278.542969 196.75 C 279.007812 196.003906 279.476562 195.257812 279.933594 194.496094 C 280.390625 193.742188 280.828125 192.980469 281.269531 192.214844 C 281.699219 191.445312 282.132812 190.671875 282.546875 189.902344 C 282.96875 189.121094 283.371094 188.339844 283.769531 187.550781 C 284.171875 186.761719 284.558594 185.972656 284.929688 185.183594 C 285.308594 184.394531 285.675781 183.585938 286.035156 182.773438 C 286.398438 181.964844 286.75 181.15625 287.082031 180.34375 C 287.425781 179.527344 287.75 178.703125 288.078125 177.878906 C 288.351562 177.160156 288.621094 176.441406 288.894531 175.703125 C 289.160156 174.976562 289.414062 174.25 289.660156 173.519531 C 289.90625 172.785156 290.152344 172.046875 290.382812 171.308594 C 290.609375 170.589844 290.832031 169.847656 291.050781 169.09375 C 291.269531 168.347656 291.480469 167.601562 291.683594 166.855469 C 291.878906 166.109375 292.070312 165.363281 292.253906 164.617188 C 292.449219 163.855469 292.625 163.101562 292.785156 162.367188 C 292.953125 161.628906 293.109375 160.867188 293.265625 160.09375 C 293.628906 158.277344 293.945312 156.453125 294.21875 154.632812 C 294.480469 152.808594 294.703125 150.972656 294.878906 149.140625 C 295.054688 147.308594 295.175781 145.46875 295.253906 143.625 C 295.335938 141.785156 295.371094 139.941406 295.351562 138.101562 C 295.335938 136.425781 295.28125 134.75 295.1875 133.078125 C 295.113281 131.847656 295.027344 130.628906 294.914062 129.410156 C 294.921875 131.171875 294.894531 132.9375 294.832031 134.699219 C 294.710938 137.96875 294.464844 141.242188 294.09375 144.476562 C 293.601562 148.800781 292.890625 153.078125 291.949219 157.296875 C 291.015625 161.488281 289.863281 165.609375 288.484375 169.652344 C 287.082031 173.765625 285.449219 177.808594 283.582031 181.738281 C 281.746094 185.621094 279.667969 189.402344 277.371094 193.074219 C 275.101562 196.6875 272.613281 200.1875 269.902344 203.554688 C 267.238281 206.859375 264.363281 210.042969 261.257812 213.085938 C 260.105469 214.210938 258.945312 215.296875 257.757812 216.359375 C 256.578125 217.417969 255.375 218.453125 254.125 219.46875 C 252.882812 220.480469 251.636719 221.460938 250.359375 222.410156 C 249.101562 223.347656 247.800781 224.269531 246.472656 225.171875 C 245.160156 226.054688 243.824219 226.925781 242.46875 227.75 C 241.125 228.574219 239.753906 229.378906 238.34375 230.160156 C 236.945312 230.933594 235.539062 231.667969 234.113281 232.378906 C 232.695312 233.082031 231.253906 233.753906 229.777344 234.40625 C 228.984375 234.757812 228.191406 235.089844 227.410156 235.414062 C 226.601562 235.746094 225.800781 236.0625 225.019531 236.371094 C 224.226562 236.675781 223.425781 236.964844 222.609375 237.261719 C 221.808594 237.542969 221 237.824219 220.179688 238.097656 C 219.363281 238.359375 218.542969 238.621094 217.726562 238.867188 C 216.910156 239.113281 216.089844 239.351562 215.273438 239.578125 C 214.445312 239.808594 213.617188 240.027344 212.792969 240.226562 C 211.957031 240.4375 211.128906 240.640625 210.300781 240.824219 C 209.476562 241.007812 208.640625 241.183594 207.796875 241.351562 C 206.941406 241.515625 206.105469 241.675781 205.289062 241.816406 C 204.441406 241.964844 203.609375 242.097656 202.753906 242.21875 C 201.917969 242.351562 201.074219 242.464844 200.222656 242.558594 C 199.378906 242.664062 198.53125 242.761719 197.6875 242.839844 C 196.835938 242.929688 195.980469 243 195.136719 243.058594 C 194.292969 243.121094 193.441406 243.175781 192.578125 243.21875 C 191.714844 243.261719 190.863281 243.289062 190.027344 243.304688 C 189.183594 243.332031 188.328125 243.339844 187.46875 243.339844 C 186.613281 243.339844 185.761719 243.324219 184.898438 243.304688 C 184.035156 243.28125 183.183594 243.253906 182.339844 243.210938 C 181.476562 243.164062 180.625 243.113281 179.777344 243.050781 C 178.917969 242.980469 178.0625 242.910156 177.21875 242.824219 C 176.382812 242.746094 175.53125 242.648438 174.667969 242.542969 C 173.816406 242.4375 172.972656 242.324219 172.125 242.191406 C 171.28125 242.070312 170.4375 241.929688 169.59375 241.789062 C 168.75 241.640625 167.90625 241.480469 167.070312 241.316406 C 166.234375 241.148438 165.398438 240.964844 164.550781 240.78125 C 163.71875 240.585938 162.882812 240.394531 162.054688 240.183594 C 161.226562 239.972656 160.390625 239.753906 159.574219 239.527344 C 158.765625 239.308594 157.9375 239.070312 157.101562 238.816406 C 156.277344 238.5625 155.457031 238.296875 154.648438 238.035156 C 153.832031 237.765625 153.011719 237.484375 152.210938 237.195312 C 151.410156 236.914062 150.609375 236.613281 149.8125 236.308594 C 148.992188 235.992188 148.199219 235.675781 147.425781 235.351562 C 146.625 235.027344 145.84375 234.683594 145.050781 234.335938 C 144.285156 234 143.511719 233.640625 142.722656 233.273438 C 141.9375 232.90625 141.164062 232.527344 140.40625 232.140625 C 139.632812 231.757812 138.867188 231.363281 138.113281 230.957031 C 137.355469 230.554688 136.609375 230.144531 135.878906 229.722656 C 135.128906 229.308594 134.390625 228.878906 133.660156 228.441406 C 132.929688 228.003906 132.199219 227.554688 131.46875 227.089844 C 130.75 226.636719 130.027344 226.171875 129.316406 225.6875 C 128.601562 225.222656 127.898438 224.742188 127.195312 224.242188 C 126.492188 223.75 125.796875 223.25 125.109375 222.742188 C 124.433594 222.242188 123.757812 221.726562 123.078125 221.199219 C 122.410156 220.679688 121.742188 220.144531 121.082031 219.601562 C 120.40625 219.050781 119.753906 218.496094 119.113281 217.953125 C 118.46875 217.402344 117.835938 216.832031 117.195312 216.261719 C 116.578125 215.691406 115.945312 215.113281 115.320312 214.515625 C 114.707031 213.929688 114.089844 213.332031 113.492188 212.734375 C 112.894531 212.140625 112.292969 211.527344 111.707031 210.910156 C 111.125 210.296875 110.542969 209.675781 109.972656 209.035156 C 109.390625 208.40625 108.828125 207.765625 108.273438 207.125 C 107.71875 206.484375 107.175781 205.835938 106.621094 205.167969 C 106.074219 204.5 105.546875 203.84375 105.039062 203.179688 C 104.511719 202.511719 104 201.835938 103.488281 201.144531 C 102.980469 200.46875 102.488281 199.773438 101.996094 199.082031 C 101.503906 198.382812 101.027344 197.679688 100.550781 196.976562 C 100.078125 196.269531 99.609375 195.546875 99.152344 194.828125 C 98.703125 194.117188 98.257812 193.390625 97.816406 192.644531 C 97.367188 191.910156 96.9375 191.171875 96.523438 190.445312 C 96.109375 189.707031 95.695312 188.960938 95.292969 188.199219 C 94.894531 187.445312 94.5 186.691406 94.113281 185.917969 C 93.726562 185.15625 93.347656 184.386719 92.988281 183.605469 C 92.617188 182.832031 92.257812 182.054688 91.914062 181.273438 C 91.210938 179.695312 90.550781 178.105469 89.945312 176.527344 C 89.328125 174.933594 88.746094 173.320312 88.210938 171.695312 C 87.675781 170.074219 87.171875 168.441406 86.722656 166.804688 C 86.257812 165.15625 85.84375 163.507812 85.476562 161.855469 C 85.097656 160.183594 84.761719 158.515625 84.472656 156.851562 C 84.183594 155.175781 83.9375 153.492188 83.726562 151.808594 C 83.515625 150.113281 83.347656 148.421875 83.222656 146.738281 C 83.101562 145.039062 83.019531 143.335938 82.976562 141.644531 C 82.941406 139.941406 82.941406 138.234375 82.984375 136.53125 C 83.03125 134.820312 83.109375 133.121094 83.242188 131.429688 C 83.363281 129.726562 83.539062 128.023438 83.75 126.332031 C 83.960938 124.640625 84.21875 122.949219 84.507812 121.273438 C 84.808594 119.589844 85.140625 117.914062 85.519531 116.246094 C 85.898438 114.582031 86.3125 112.925781 86.769531 111.277344 C 87.226562 109.636719 87.726562 107.996094 88.273438 106.375 C 88.808594 104.753906 89.390625 103.136719 90.003906 101.542969 C 90.320312 100.734375 90.636719 99.945312 90.957031 99.175781 C 91.289062 98.386719 91.632812 97.597656 91.976562 96.808594 C 92.320312 96.042969 92.679688 95.273438 93.046875 94.484375 C 93.417969 93.703125 93.796875 92.929688 94.183594 92.175781 C 94.570312 91.40625 94.964844 90.640625 95.371094 89.886719 C 95.773438 89.132812 96.1875 88.386719 96.601562 87.652344 C 97.023438 86.914062 97.457031 86.179688 97.894531 85.449219 C 98.335938 84.722656 98.785156 83.996094 99.25 83.265625 C 99.707031 82.546875 100.171875 81.835938 100.648438 81.117188 C 101.132812 80.398438 101.617188 79.699219 102.101562 79.003906 C 102.609375 78.296875 103.113281 77.601562 103.613281 76.925781 C 104.113281 76.25 104.632812 75.578125 105.160156 74.902344 C 105.679688 74.234375 106.214844 73.566406 106.761719 72.902344 C 107.316406 72.234375 107.871094 71.585938 108.414062 70.945312 C 108.96875 70.304688 109.542969 69.675781 110.113281 69.035156 C 110.675781 68.421875 111.257812 67.789062 111.855469 67.164062 C 112.453125 66.554688 113.042969 65.9375 113.648438 65.34375 C 114.246094 64.746094 114.863281 64.148438 115.480469 63.5625 C 116.09375 62.984375 116.71875 62.40625 117.351562 61.835938 C 117.984375 61.265625 118.628906 60.695312 119.277344 60.140625 C 119.914062 59.589844 120.570312 59.046875 121.242188 58.496094 C 132.648438 49.191406 146 42.359375 160.242188 38.535156 C 161.078125 38.316406 161.90625 38.105469 162.722656 37.902344 C 163.542969 37.703125 164.367188 37.519531 165.222656 37.335938 C 166.046875 37.148438 166.894531 36.984375 167.746094 36.816406 C 168.582031 36.65625 169.433594 36.511719 170.277344 36.371094 C 171.132812 36.21875 171.976562 36.097656 172.828125 35.976562 C 173.683594 35.851562 174.535156 35.746094 175.390625 35.640625 C 176.25 35.542969 177.105469 35.457031 177.949219 35.378906 C 178.785156 35.300781 179.636719 35.226562 180.5 35.167969 C 181.355469 35.113281 182.207031 35.0625 183.078125 35.027344 C 183.929688 34.992188 184.785156 34.964844 185.636719 34.949219 C 186.5 34.929688 187.351562 34.929688 188.195312 34.929688 C 189.058594 34.941406 189.914062 34.949219 190.757812 34.972656 C 191.617188 35 192.472656 35.035156 193.316406 35.089844 C 194.167969 35.132812 195.03125 35.195312 195.917969 35.265625 C 196.816406 35.34375 197.707031 35.429688 198.59375 35.527344 C 199.5 35.625 200.414062 35.738281 201.328125 35.859375 C 202.234375 35.984375 203.148438 36.125 204.074219 36.273438 C 205.007812 36.421875 205.929688 36.578125 206.863281 36.753906 C 207.769531 36.929688 208.699219 37.113281 209.640625 37.308594 C 210.566406 37.507812 211.5 37.710938 212.414062 37.929688 C 213.328125 38.148438 214.261719 38.378906 215.203125 38.625 C 218.34375 39.445312 221.410156 40.378906 224.421875 41.445312 C 227.4375 42.515625 230.410156 43.734375 233.363281 45.148438 C 247.21875 51.75 258.355469 62.273438 265.347656 73.917969 C 279.476562 97.4375 274.988281 131.464844 243.597656 134.9375 C 241.125 135.207031 238.503906 135.207031 235.777344 134.890625 C 235.777344 134.890625 237.351562 135.445312 240.050781 135.769531 C 247.421875 136.644531 256.199219 134.347656 262.253906 130.183594 C 274.917969 121.449219 277.726562 105.09375 275.070312 90.871094 C 274.277344 86.609375 272.941406 82.433594 271.136719 78.507812 C 266.554688 68.550781 258.972656 59.035156 248.980469 51.339844 " fill-opacity="1" fill-rule="evenodd"/></g><path fill="#893616" d="M 146.976562 146.582031 C 149.871094 145.421875 152.183594 145.160156 155.042969 144.503906 C 156.601562 144.144531 158.40625 143.582031 157.324219 142.335938 C 148.753906 132.550781 152.289062 118.773438 155.289062 111.207031 C 155.785156 109.960938 154.402344 109.847656 152.722656 109.910156 C 146.574219 110.144531 137.382812 112.976562 131.945312 115.574219 C 128.929688 117.082031 127.707031 117.933594 128.277344 121.316406 C 129.535156 128.851562 132.957031 140.160156 142.261719 146.773438 C 143.636719 147.757812 145.246094 147.230469 146.976562 146.582031 Z M 139.570312 151.613281 C 140.363281 150.449219 140.882812 149.246094 139.617188 148.257812 C 130.378906 141.074219 126.894531 129.605469 125.578125 121.871094 C 125.136719 119.316406 122.769531 121.230469 120.230469 123.210938 C 114.738281 127.988281 110.640625 133.707031 107.949219 139.820312 C 106.59375 142.996094 107.0625 144.632812 109.59375 146.703125 C 114.617188 150.800781 122.542969 155.4375 133.765625 157.023438 C 135.5 157.261719 136.335938 156.605469 137.117188 155.453125 C 137.953125 154.21875 138.683594 152.914062 139.570312 151.613281 Z M 136.089844 161.3125 C 136.007812 160.601562 135.773438 160.050781 134.75 159.929688 C 134.644531 159.917969 134.53125 159.902344 134.425781 159.894531 C 122.015625 158.359375 113.269531 153.253906 107.773438 148.753906 C 106.023438 147.316406 105.453125 148.070312 105.054688 149.605469 C 103.628906 155.070312 103.992188 161.988281 105.320312 167.40625 C 105.714844 167.574219 105.722656 174.363281 112.101562 174.992188 C 118.320312 175.617188 127.238281 175.1875 135.957031 170.125 C 137.101562 169.46875 137.476562 168.730469 137.328125 167.511719 C 137.089844 165.496094 136.351562 163.628906 136.089844 161.3125 Z M 140.453125 172.582031 C 139.816406 171.96875 138.972656 171.574219 137.523438 172.421875 C 127.96875 178.019531 118.171875 178.402344 111.449219 177.683594 C 109.566406 177.484375 110.238281 178.613281 111.152344 180.351562 C 115.144531 186.050781 120.441406 190.269531 126.464844 193.128906 C 131.585938 195.417969 134.195312 192.417969 137.582031 188.890625 C 140.460938 185.894531 142.84375 182.429688 144.894531 178.429688 C 145.289062 177.660156 144.964844 177.035156 144.472656 176.527344 C 143.144531 175.152344 141.851562 174.316406 140.453125 172.582031 Z M 200.898438 109.714844 C 216.070312 111.785156 238.140625 114.652344 244.15625 114.660156 C 245.652344 114.667969 244.703125 114.914062 244.007812 115.097656 C 240.683594 115.949219 234.421875 116.582031 227.253906 116.964844 C 233.929688 118.675781 240.621094 120.34375 247.421875 121.675781 C 248.328125 121.851562 249.234375 122.027344 250.140625 122.195312 C 251.742188 122.484375 253.351562 122.761719 254.949219 123.042969 C 255.136719 123.078125 255.304688 123.113281 255.425781 123.148438 C 255.425781 123.148438 255.375 123.203125 255.304688 123.273438 C 246.144531 132.007812 219.230469 139.828125 207.082031 136.152344 C 206.976562 136.128906 207.714844 136.53125 208.839844 137.058594 C 211.359375 138.214844 214.496094 138.996094 217.601562 139.195312 C 194.046875 145.476562 167.199219 148.703125 160.074219 141.136719 C 153.019531 133.648438 154.304688 123.21875 156.574219 115.878906 C 158.351562 110.144531 161.570312 108.707031 167.183594 107.917969 C 169.285156 107.628906 171.644531 107.503906 174.113281 107.515625 C 182.953125 107.546875 192.253906 108.53125 200.898438 109.714844 Z M 167.578125 185.332031 C 190.90625 175.230469 195.183594 178.359375 190.113281 184.015625 C 186.128906 183.304688 178.953125 183.515625 167.578125 185.332031 Z M 158.78125 197.601562 C 161.78125 195.785156 164.035156 192.257812 163.488281 188.691406 C 163.460938 188.507812 163.425781 188.324219 163.382812 188.148438 C 217.964844 178.324219 186.164062 201.371094 158.78125 197.601562 Z M 157.003906 183.570312 C 154.640625 182.097656 152.140625 180.859375 149.660156 179.589844 C 148.667969 179.160156 147.683594 179.097656 146.847656 180.660156 C 144.796875 184.492188 142.414062 187.847656 139.582031 190.804688 C 138.578125 191.847656 137.511719 192.847656 136.386719 193.785156 C 135.171875 194.8125 135.339844 195.90625 137.089844 196.523438 C 140.839844 197.835938 150.109375 198.460938 154.136719 197.257812 C 160.964844 195.222656 163.894531 187.882812 157.003906 183.570312 Z M 200.363281 145.179688 C 200.40625 145.179688 216.707031 144.574219 227.558594 161.25 C 227.675781 161.425781 225.28125 151.902344 218.128906 147.605469 C 209.863281 142.636719 200.097656 145.179688 200.363281 145.179688 Z M 182.945312 147.695312 C 182.988281 147.695312 199.296875 147.5 209.730469 164.453125 C 209.84375 164.628906 207.691406 155.042969 200.644531 150.570312 C 192.507812 145.398438 182.683594 147.695312 182.945312 147.695312 Z M 225.351562 116.695312 C 222.667969 116.695312 220.488281 118.871094 220.488281 121.542969 C 220.488281 124.21875 222.667969 126.394531 225.351562 126.394531 C 228.035156 126.394531 230.21875 124.21875 230.21875 121.542969 C 230.21875 118.871094 228.035156 116.695312 225.351562 116.695312 Z M 163.910156 148.476562 C 163.957031 148.476562 180.273438 148.222656 190.757812 165.128906 C 190.871094 165.304688 188.679688 155.734375 181.625 151.28125 C 173.464844 146.132812 163.648438 148.476562 163.910156 148.476562 " fill-opacity="1" fill-rule="evenodd"/><path fill="#ffffff" d="M 225.316406 118.136719 C 223.433594 118.136719 221.914062 119.660156 221.914062 121.535156 C 221.914062 123.414062 223.433594 124.941406 225.316406 124.941406 C 227.207031 124.941406 228.730469 123.414062 228.730469 121.535156 C 228.730469 119.660156 227.207031 118.136719 225.316406 118.136719 " fill-opacity="1" fill-rule="evenodd"/><g fill="#ff7412" fill-opacity="1"><g transform="translate(0.0117232, 305.783447)"><g><path d="M 45.84375 -43.984375 C 46.019531 -43.984375 46.171875 -43.753906 46.296875 -43.296875 C 46.421875 -42.847656 46.644531 -42.210938 46.96875 -41.390625 C 46.96875 -41.390625 47.253906 -40.660156 47.828125 -39.203125 C 48.078125 -38.578125 48.203125 -38.226562 48.203125 -38.15625 C 48.203125 -38.082031 48.070312 -38 47.8125 -37.90625 C 47.550781 -37.820312 47.382812 -37.78125 47.3125 -37.78125 C 47.1875 -37.78125 47.03125 -37.910156 46.84375 -38.171875 C 46.65625 -38.429688 46.332031 -38.738281 45.875 -39.09375 C 45.425781 -39.457031 44.1875 -39.640625 42.15625 -39.640625 L 27.046875 -39.640625 L 27.046875 -4.703125 C 27.046875 -3.390625 27.472656 -2.304688 28.328125 -1.453125 C 28.398438 -1.378906 28.550781 -1.285156 28.78125 -1.171875 C 29.019531 -1.066406 29.140625 -0.84375 29.140625 -0.5 C 29.140625 -0.164062 29.023438 0 28.796875 0 L 20.09375 0 C 19.851562 0 19.734375 -0.15625 19.734375 -0.46875 C 19.734375 -0.78125 19.773438 -0.96875 19.859375 -1.03125 C 19.941406 -1.09375 20.050781 -1.15625 20.1875 -1.21875 C 20.332031 -1.28125 20.515625 -1.421875 20.734375 -1.640625 C 20.960938 -1.867188 21.203125 -2.28125 21.453125 -2.875 C 21.703125 -3.476562 21.828125 -4.085938 21.828125 -4.703125 L 21.828125 -39.640625 L 6.71875 -39.640625 C 4.1875 -39.640625 2.664062 -39.207031 2.15625 -38.34375 C 1.894531 -37.988281 1.710938 -37.804688 1.609375 -37.796875 C 1.503906 -37.785156 1.320312 -37.820312 1.0625 -37.90625 C 0.800781 -38 0.671875 -38.082031 0.671875 -38.15625 C 0.671875 -38.226562 0.796875 -38.578125 1.046875 -39.203125 L 1.90625 -41.390625 C 2.226562 -42.191406 2.445312 -42.800781 2.5625 -43.21875 C 2.675781 -43.644531 2.832031 -43.898438 3.03125 -43.984375 Z M 45.84375 -43.984375 "/></g></g></g><g fill="#ff7412" fill-opacity="1"><g transform="translate(48.885202, 305.783447)"><g><path d="M 3.4375 -43.984375 L 12.140625 -43.984375 C 12.367188 -43.984375 12.484375 -43.828125 12.484375 -43.515625 C 12.484375 -43.203125 12.441406 -43.015625 12.359375 -42.953125 C 12.285156 -42.890625 12.175781 -42.828125 12.03125 -42.765625 C 11.882812 -42.703125 11.695312 -42.554688 11.46875 -42.328125 C 11.25 -42.109375 11.015625 -41.695312 10.765625 -41.09375 C 10.515625 -40.5 10.390625 -39.898438 10.390625 -39.296875 L 10.390625 -27.078125 L 40.84375 -27.078125 L 40.84375 -39.296875 C 40.84375 -40.597656 40.414062 -41.679688 39.5625 -42.546875 C 39.488281 -42.609375 39.332031 -42.691406 39.09375 -42.796875 C 38.863281 -42.910156 38.75 -43.132812 38.75 -43.46875 C 38.75 -43.8125 38.867188 -43.984375 39.109375 -43.984375 L 47.796875 -43.984375 C 48.035156 -43.984375 48.15625 -43.828125 48.15625 -43.515625 C 48.15625 -43.203125 48.113281 -43.015625 48.03125 -42.953125 C 47.945312 -42.890625 47.832031 -42.828125 47.6875 -42.765625 C 47.550781 -42.703125 47.367188 -42.554688 47.140625 -42.328125 C 46.921875 -42.109375 46.6875 -41.695312 46.4375 -41.09375 C 46.1875 -40.5 46.0625 -39.898438 46.0625 -39.296875 L 46.0625 -4.703125 C 46.0625 -3.390625 46.488281 -2.304688 47.34375 -1.453125 C 47.414062 -1.378906 47.566406 -1.285156 47.796875 -1.171875 C 48.035156 -1.066406 48.15625 -0.84375 48.15625 -0.5 C 48.15625 -0.164062 48.035156 0 47.796875 0 L 39.109375 0 C 38.867188 0 38.75 -0.15625 38.75 -0.46875 C 38.75 -0.78125 38.789062 -0.96875 38.875 -1.03125 C 38.957031 -1.09375 39.066406 -1.15625 39.203125 -1.21875 C 39.347656 -1.28125 39.53125 -1.421875 39.75 -1.640625 C 39.976562 -1.867188 40.21875 -2.28125 40.46875 -2.875 C 40.71875 -3.476562 40.84375 -4.085938 40.84375 -4.703125 L 40.84375 -22.609375 L 10.390625 -22.609375 L 10.390625 -4.703125 C 10.390625 -3.390625 10.820312 -2.304688 11.6875 -1.453125 C 11.757812 -1.378906 11.910156 -1.285156 12.140625 -1.171875 C 12.367188 -1.066406 12.484375 -0.84375 12.484375 -0.5 C 12.484375 -0.164062 12.367188 0 12.140625 0 L 3.4375 0 C 3.207031 0 3.09375 -0.15625 3.09375 -0.46875 C 3.09375 -0.78125 3.128906 -0.96875 3.203125 -1.03125 C 3.285156 -1.09375 3.398438 -1.15625 3.546875 -1.21875 C 3.691406 -1.28125 3.875 -1.421875 4.09375 -1.640625 C 4.320312 -1.867188 4.5625 -2.28125 4.8125 -2.875 C 5.0625 -3.476562 5.1875 -4.085938 5.1875 -4.703125 L 5.1875 -39.296875 C 5.1875 -40.597656 4.753906 -41.679688 3.890625 -42.546875 C 3.816406 -42.609375 3.664062 -42.691406 3.4375 -42.796875 C 3.207031 -42.910156 3.09375 -43.132812 3.09375 -43.46875 C 3.09375 -43.8125 3.207031 -43.984375 3.4375 -43.984375 Z M 3.4375 -43.984375 "/></g></g></g><g fill="#ff7412" fill-opacity="1"><g transform="translate(100.658864, 305.783447)"><g><path d="M 5.234375 -39.296875 C 5.234375 -40.566406 4.785156 -41.648438 3.890625 -42.546875 C 3.816406 -42.609375 3.664062 -42.691406 3.4375 -42.796875 C 3.207031 -42.910156 3.09375 -43.132812 3.09375 -43.46875 C 3.09375 -43.8125 3.207031 -43.984375 3.4375 -43.984375 L 12.46875 -43.984375 C 12.695312 -43.984375 12.8125 -43.828125 12.8125 -43.515625 C 12.8125 -43.203125 12.769531 -43.015625 12.6875 -42.953125 C 12.601562 -42.890625 12.488281 -42.828125 12.34375 -42.765625 C 12.207031 -42.703125 12.023438 -42.554688 11.796875 -42.328125 C 11.578125 -42.109375 11.34375 -41.695312 11.09375 -41.09375 C 10.84375 -40.5 10.71875 -39.898438 10.71875 -39.296875 L 10.71875 -17.03125 C 10.71875 -12.894531 11.992188 -9.679688 14.546875 -7.390625 C 17.097656 -5.109375 20.21875 -3.96875 23.90625 -3.96875 C 26.070312 -3.96875 28.109375 -4.519531 30.015625 -5.625 C 31.921875 -6.726562 33.429688 -8.1875 34.546875 -10 C 35.671875 -11.820312 36.234375 -13.753906 36.234375 -15.796875 L 36.234375 -39.296875 C 36.234375 -40.597656 35.800781 -41.679688 34.9375 -42.546875 C 34.863281 -42.609375 34.710938 -42.691406 34.484375 -42.796875 C 34.253906 -42.910156 34.140625 -43.132812 34.140625 -43.46875 C 34.140625 -43.8125 34.253906 -43.984375 34.484375 -43.984375 L 42.859375 -43.984375 C 43.085938 -43.984375 43.203125 -43.828125 43.203125 -43.515625 C 43.203125 -43.203125 43.160156 -43.015625 43.078125 -42.953125 C 43.003906 -42.890625 42.894531 -42.828125 42.75 -42.765625 C 42.613281 -42.703125 42.429688 -42.554688 42.203125 -42.328125 C 41.984375 -42.109375 41.742188 -41.695312 41.484375 -41.09375 C 41.234375 -40.5 41.109375 -39.898438 41.109375 -39.296875 L 41.109375 -15.796875 C 41.109375 -12.710938 40.316406 -9.878906 38.734375 -7.296875 C 37.148438 -4.722656 35.03125 -2.703125 32.375 -1.234375 C 29.71875 0.234375 26.769531 0.96875 23.53125 0.96875 C 20.300781 0.96875 17.285156 0.21875 14.484375 -1.28125 C 11.679688 -2.789062 9.4375 -4.925781 7.75 -7.6875 C 6.070312 -10.457031 5.234375 -13.570312 5.234375 -17.03125 Z M 5.234375 -39.296875 "/></g></g></g><g fill="#ff7412" fill-opacity="1"><g transform="translate(147.303503, 305.783447)"><g><path d="M 19.984375 -18.5625 L 4.109375 -39.875 C 3.609375 -40.5625 3.050781 -41.164062 2.4375 -41.6875 C 1.832031 -42.21875 1.503906 -42.507812 1.453125 -42.5625 C 1.398438 -42.613281 1.253906 -42.691406 1.015625 -42.796875 C 0.785156 -42.910156 0.671875 -43.132812 0.671875 -43.46875 C 0.671875 -43.8125 0.785156 -43.984375 1.015625 -43.984375 L 10.75 -43.984375 C 10.976562 -43.984375 11.09375 -43.828125 11.09375 -43.515625 C 11.09375 -43.203125 11.050781 -43.015625 10.96875 -42.953125 C 10.882812 -42.890625 10.773438 -42.820312 10.640625 -42.75 C 9.972656 -42.46875 9.6875 -42.035156 9.78125 -41.453125 C 9.882812 -40.867188 10.273438 -40.117188 10.953125 -39.203125 L 22.796875 -23.359375 L 23.015625 -23.359375 L 35.1875 -39.203125 C 36.34375 -40.660156 36.898438 -41.535156 36.859375 -41.828125 C 36.816406 -42.117188 36.734375 -42.328125 36.609375 -42.453125 C 36.484375 -42.578125 36.300781 -42.691406 36.0625 -42.796875 C 35.832031 -42.910156 35.71875 -43.132812 35.71875 -43.46875 C 35.71875 -43.8125 35.832031 -43.984375 36.0625 -43.984375 L 44.53125 -43.984375 C 44.757812 -43.984375 44.875 -43.828125 44.875 -43.515625 C 44.875 -43.203125 44.832031 -43.015625 44.75 -42.953125 C 44.675781 -42.890625 44.566406 -42.828125 44.421875 -42.765625 C 44.273438 -42.703125 44.175781 -42.644531 44.125 -42.59375 C 44.070312 -42.539062 43.925781 -42.429688 43.6875 -42.265625 L 42.96875 -41.703125 C 42.25 -41.128906 41.660156 -40.519531 41.203125 -39.875 L 25.515625 -19.53125 L 25.515625 -4.703125 C 25.515625 -3.390625 25.941406 -2.304688 26.796875 -1.453125 C 26.867188 -1.378906 27.019531 -1.285156 27.25 -1.171875 C 27.488281 -1.066406 27.609375 -0.84375 27.609375 -0.5 C 27.609375 -0.164062 27.492188 0 27.265625 0 L 18.203125 0 C 17.972656 0 17.859375 -0.15625 17.859375 -0.46875 C 17.859375 -0.78125 17.894531 -0.96875 17.96875 -1.03125 C 18.050781 -1.09375 18.164062 -1.15625 18.3125 -1.21875 C 18.457031 -1.28125 18.644531 -1.425781 18.875 -1.65625 C 19.113281 -1.894531 19.359375 -2.304688 19.609375 -2.890625 C 19.859375 -3.484375 19.984375 -4.085938 19.984375 -4.703125 Z M 19.984375 -18.5625 "/></g></g></g><g fill="#ff7412" fill-opacity="1"><g transform="translate(192.847129, 305.783447)"><g/></g></g><g fill="#ff7412" fill-opacity="1"><g transform="translate(206.596151, 305.783447)"><g><path d="M 45.84375 -43.984375 C 46.019531 -43.984375 46.171875 -43.753906 46.296875 -43.296875 C 46.421875 -42.847656 46.644531 -42.210938 46.96875 -41.390625 C 46.96875 -41.390625 47.253906 -40.660156 47.828125 -39.203125 C 48.078125 -38.578125 48.203125 -38.226562 48.203125 -38.15625 C 48.203125 -38.082031 48.070312 -38 47.8125 -37.90625 C 47.550781 -37.820312 47.382812 -37.78125 47.3125 -37.78125 C 47.1875 -37.78125 47.03125 -37.910156 46.84375 -38.171875 C 46.65625 -38.429688 46.332031 -38.738281 45.875 -39.09375 C 45.425781 -39.457031 44.1875 -39.640625 42.15625 -39.640625 L 27.046875 -39.640625 L 27.046875 -4.703125 C 27.046875 -3.390625 27.472656 -2.304688 28.328125 -1.453125 C 28.398438 -1.378906 28.550781 -1.285156 28.78125 -1.171875 C 29.019531 -1.066406 29.140625 -0.84375 29.140625 -0.5 C 29.140625 -0.164062 29.023438 0 28.796875 0 L 20.09375 0 C 19.851562 0 19.734375 -0.15625 19.734375 -0.46875 C 19.734375 -0.78125 19.773438 -0.96875 19.859375 -1.03125 C 19.941406 -1.09375 20.050781 -1.15625 20.1875 -1.21875 C 20.332031 -1.28125 20.515625 -1.421875 20.734375 -1.640625 C 20.960938 -1.867188 21.203125 -2.28125 21.453125 -2.875 C 21.703125 -3.476562 21.828125 -4.085938 21.828125 -4.703125 L 21.828125 -39.640625 L 6.71875 -39.640625 C 4.1875 -39.640625 2.664062 -39.207031 2.15625 -38.34375 C 1.894531 -37.988281 1.710938 -37.804688 1.609375 -37.796875 C 1.503906 -37.785156 1.320312 -37.820312 1.0625 -37.90625 C 0.800781 -38 0.671875 -38.082031 0.671875 -38.15625 C 0.671875 -38.226562 0.796875 -38.578125 1.046875 -39.203125 L 1.90625 -41.390625 C 2.226562 -42.191406 2.445312 -42.800781 2.5625 -43.21875 C 2.675781 -43.644531 2.832031 -43.898438 3.03125 -43.984375 Z M 45.84375 -43.984375 "/></g></g></g><g fill="#ff7412" fill-opacity="1"><g transform="translate(255.469629, 305.783447)"><g><path d="M 3.4375 -43.984375 L 12.140625 -43.984375 C 12.367188 -43.984375 12.484375 -43.828125 12.484375 -43.515625 C 12.484375 -43.203125 12.441406 -43.015625 12.359375 -42.953125 C 12.285156 -42.890625 12.175781 -42.828125 12.03125 -42.765625 C 11.882812 -42.703125 11.695312 -42.554688 11.46875 -42.328125 C 11.25 -42.109375 11.015625 -41.695312 10.765625 -41.09375 C 10.515625 -40.5 10.390625 -39.898438 10.390625 -39.296875 L 10.390625 -4.703125 C 10.390625 -3.390625 10.820312 -2.304688 11.6875 -1.453125 C 11.757812 -1.378906 11.910156 -1.285156 12.140625 -1.171875 C 12.367188 -1.066406 12.484375 -0.84375 12.484375 -0.5 C 12.484375 -0.164062 12.367188 0 12.140625 0 L 3.4375 0 C 3.207031 0 3.09375 -0.15625 3.09375 -0.46875 C 3.09375 -0.78125 3.128906 -0.96875 3.203125 -1.03125 C 3.285156 -1.09375 3.398438 -1.15625 3.546875 -1.21875 C 3.691406 -1.28125 3.875 -1.421875 4.09375 -1.640625 C 4.320312 -1.867188 4.5625 -2.28125 4.8125 -2.875 C 5.0625 -3.476562 5.1875 -4.085938 5.1875 -4.703125 L 5.1875 -39.296875 C 5.1875 -40.597656 4.753906 -41.679688 3.890625 -42.546875 C 3.816406 -42.609375 3.664062 -42.691406 3.4375 -42.796875 C 3.207031 -42.910156 3.09375 -43.132812 3.09375 -43.46875 C 3.09375 -43.8125 3.207031 -43.984375 3.4375 -43.984375 Z M 3.4375 -43.984375 "/></g></g></g><g fill="#ff7412" fill-opacity="1"><g transform="translate(271.581765, 305.783447)"><g><path d="M 10.125 -43.984375 C 10.28125 -43.984375 10.429688 -43.914062 10.578125 -43.78125 L 40.609375 -11.921875 L 40.796875 -11.921875 L 40.796875 -39.296875 C 40.796875 -40.578125 40.359375 -41.660156 39.484375 -42.546875 C 39.410156 -42.609375 39.253906 -42.691406 39.015625 -42.796875 C 38.785156 -42.910156 38.671875 -43.132812 38.671875 -43.46875 C 38.671875 -43.8125 38.785156 -43.984375 39.015625 -43.984375 L 47.796875 -43.984375 C 48.035156 -43.984375 48.15625 -43.828125 48.15625 -43.515625 C 48.15625 -43.203125 48.113281 -43.015625 48.03125 -42.953125 C 47.945312 -42.890625 47.832031 -42.828125 47.6875 -42.765625 C 47.550781 -42.703125 47.363281 -42.550781 47.125 -42.3125 C 46.894531 -42.082031 46.648438 -41.671875 46.390625 -41.078125 C 46.128906 -40.492188 46 -39.898438 46 -39.296875 L 46 -1.421875 C 46 -0.765625 45.914062 -0.363281 45.75 -0.21875 C 45.582031 -0.0703125 45.304688 0 44.921875 0 C 44.546875 0 44.242188 -0.109375 44.015625 -0.328125 L 10.265625 -36.140625 L 10.265625 -4.703125 C 10.265625 -3.316406 10.65625 -2.234375 11.4375 -1.453125 C 11.507812 -1.378906 11.660156 -1.285156 11.890625 -1.171875 C 12.128906 -1.066406 12.25 -0.84375 12.25 -0.5 C 12.25 -0.164062 12.128906 0 11.890625 0 L 3.25 0 C 3.019531 0 2.90625 -0.15625 2.90625 -0.46875 C 2.90625 -0.78125 2.941406 -0.96875 3.015625 -1.03125 C 3.097656 -1.09375 3.210938 -1.15625 3.359375 -1.21875 C 3.503906 -1.28125 3.617188 -1.359375 3.703125 -1.453125 C 4.597656 -2.347656 5.046875 -3.429688 5.046875 -4.703125 L 5.046875 -39.296875 C 5.046875 -40.617188 4.625 -41.703125 3.78125 -42.546875 C 3.707031 -42.609375 3.554688 -42.691406 3.328125 -42.796875 C 3.097656 -42.910156 2.984375 -43.132812 2.984375 -43.46875 C 2.984375 -43.8125 3.097656 -43.984375 3.328125 -43.984375 Z M 10.125 -43.984375 "/></g></g></g><g fill="#ff7412" fill-opacity="1"><g transform="translate(323.167447, 305.783447)"><g><path d="M 3.4375 -43.984375 L 12.140625 -43.984375 C 12.367188 -43.984375 12.484375 -43.828125 12.484375 -43.515625 C 12.484375 -43.203125 12.441406 -43.015625 12.359375 -42.953125 C 12.285156 -42.890625 12.175781 -42.828125 12.03125 -42.765625 C 11.882812 -42.703125 11.695312 -42.554688 11.46875 -42.328125 C 11.25 -42.109375 11.015625 -41.695312 10.765625 -41.09375 C 10.515625 -40.5 10.390625 -39.898438 10.390625 -39.296875 L 10.390625 -27.078125 L 40.84375 -27.078125 L 40.84375 -39.296875 C 40.84375 -40.597656 40.414062 -41.679688 39.5625 -42.546875 C 39.488281 -42.609375 39.332031 -42.691406 39.09375 -42.796875 C 38.863281 -42.910156 38.75 -43.132812 38.75 -43.46875 C 38.75 -43.8125 38.867188 -43.984375 39.109375 -43.984375 L 47.796875 -43.984375 C 48.035156 -43.984375 48.15625 -43.828125 48.15625 -43.515625 C 48.15625 -43.203125 48.113281 -43.015625 48.03125 -42.953125 C 47.945312 -42.890625 47.832031 -42.828125 47.6875 -42.765625 C 47.550781 -42.703125 47.367188 -42.554688 47.140625 -42.328125 C 46.921875 -42.109375 46.6875 -41.695312 46.4375 -41.09375 C 46.1875 -40.5 46.0625 -39.898438 46.0625 -39.296875 L 46.0625 -4.703125 C 46.0625 -3.390625 46.488281 -2.304688 47.34375 -1.453125 C 47.414062 -1.378906 47.566406 -1.285156 47.796875 -1.171875 C 48.035156 -1.066406 48.15625 -0.84375 48.15625 -0.5 C 48.15625 -0.164062 48.035156 0 47.796875 0 L 39.109375 0 C 38.867188 0 38.75 -0.15625 38.75 -0.46875 C 38.75 -0.78125 38.789062 -0.96875 38.875 -1.03125 C 38.957031 -1.09375 39.066406 -1.15625 39.203125 -1.21875 C 39.347656 -1.28125 39.53125 -1.421875 39.75 -1.640625 C 39.976562 -1.867188 40.21875 -2.28125 40.46875 -2.875 C 40.71875 -3.476562 40.84375 -4.085938 40.84375 -4.703125 L 40.84375 -22.609375 L 10.390625 -22.609375 L 10.390625 -4.703125 C 10.390625 -3.390625 10.820312 -2.304688 11.6875 -1.453125 C 11.757812 -1.378906 11.910156 -1.285156 12.140625 -1.171875 C 12.367188 -1.066406 12.484375 -0.84375 12.484375 -0.5 C 12.484375 -0.164062 12.367188 0 12.140625 0 L 3.4375 0 C 3.207031 0 3.09375 -0.15625 3.09375 -0.46875 C 3.09375 -0.78125 3.128906 -0.96875 3.203125 -1.03125 C 3.285156 -1.09375 3.398438 -1.15625 3.546875 -1.21875 C 3.691406 -1.28125 3.875 -1.421875 4.09375 -1.640625 C 4.320312 -1.867188 4.5625 -2.28125 4.8125 -2.875 C 5.0625 -3.476562 5.1875 -4.085938 5.1875 -4.703125 L 5.1875 -39.296875 C 5.1875 -40.597656 4.753906 -41.679688 3.890625 -42.546875 C 3.816406 -42.609375 3.664062 -42.691406 3.4375 -42.796875 C 3.207031 -42.910156 3.09375 -43.132812 3.09375 -43.46875 C 3.09375 -43.8125 3.207031 -43.984375 3.4375 -43.984375 Z M 3.4375 -43.984375 "/></g></g></g><g fill="#ff7412" fill-opacity="1"><g transform="translate(45.293063, 336.583454)"><g><path d="M 6.53125 0.265625 C 5.40625 0.265625 4.421875 0.0625 3.578125 -0.34375 C 2.742188 -0.757812 2.097656 -1.332031 1.640625 -2.0625 C 1.191406 -2.800781 0.96875 -3.65625 0.96875 -4.625 L 2.90625 -4.625 C 2.90625 -4.019531 3.039062 -3.460938 3.3125 -2.953125 C 3.59375 -2.453125 4 -2.050781 4.53125 -1.75 C 5.070312 -1.445312 5.738281 -1.296875 6.53125 -1.296875 C 7.570312 -1.296875 8.378906 -1.546875 8.953125 -2.046875 C 9.523438 -2.546875 9.8125 -3.171875 9.8125 -3.921875 C 9.8125 -4.535156 9.675781 -5.03125 9.40625 -5.40625 C 9.144531 -5.78125 8.789062 -6.082031 8.34375 -6.3125 C 7.894531 -6.550781 7.378906 -6.753906 6.796875 -6.921875 C 6.222656 -7.097656 5.625 -7.300781 5 -7.53125 C 3.8125 -7.9375 2.929688 -8.441406 2.359375 -9.046875 C 1.785156 -9.660156 1.5 -10.457031 1.5 -11.4375 C 1.476562 -12.257812 1.664062 -12.988281 2.0625 -13.625 C 2.457031 -14.269531 3.019531 -14.769531 3.75 -15.125 C 4.476562 -15.476562 5.34375 -15.65625 6.34375 -15.65625 C 7.320312 -15.65625 8.171875 -15.472656 8.890625 -15.109375 C 9.617188 -14.742188 10.1875 -14.238281 10.59375 -13.59375 C 11 -12.945312 11.207031 -12.210938 11.21875 -11.390625 L 9.28125 -11.390625 C 9.28125 -11.816406 9.171875 -12.238281 8.953125 -12.65625 C 8.734375 -13.070312 8.398438 -13.410156 7.953125 -13.671875 C 7.503906 -13.941406 6.941406 -14.078125 6.265625 -14.078125 C 5.429688 -14.097656 4.742188 -13.882812 4.203125 -13.4375 C 3.671875 -13 3.40625 -12.390625 3.40625 -11.609375 C 3.40625 -10.953125 3.59375 -10.445312 3.96875 -10.09375 C 4.34375 -9.738281 4.867188 -9.445312 5.546875 -9.21875 C 6.222656 -9 7 -8.742188 7.875 -8.453125 C 8.601562 -8.179688 9.257812 -7.867188 9.84375 -7.515625 C 10.4375 -7.171875 10.894531 -6.71875 11.21875 -6.15625 C 11.550781 -5.601562 11.71875 -4.894531 11.71875 -4.03125 C 11.71875 -3.289062 11.523438 -2.59375 11.140625 -1.9375 C 10.765625 -1.289062 10.191406 -0.757812 9.421875 -0.34375 C 8.648438 0.0625 7.6875 0.265625 6.53125 0.265625 Z M 6.53125 0.265625 "/></g></g></g><g fill="#ff7412" fill-opacity="1"><g transform="translate(60.514792, 336.583454)"><g><path d="M 1.625 0 L 1.625 -15.40625 L 11.15625 -15.40625 L 11.15625 -13.875 L 3.46875 -13.875 L 3.46875 -8.515625 L 10.5 -8.515625 L 10.5 -7.015625 L 3.46875 -7.015625 L 3.46875 -1.515625 L 11.15625 -1.515625 L 11.15625 0 Z M 1.625 0 "/></g></g></g><g fill="#ff7412" fill-opacity="1"><g transform="translate(75.428573, 336.583454)"><g><path d="M 0.65625 0 L 6.34375 -15.40625 L 8.296875 -15.40625 L 13.953125 0 L 11.984375 0 L 10.578125 -3.953125 L 4.03125 -3.953125 L 2.59375 0 Z M 4.578125 -5.453125 L 10.03125 -5.453125 L 7.296875 -13.0625 Z M 4.578125 -5.453125 "/></g></g></g><g fill="#ff7412" fill-opacity="1"><g transform="translate(92.541967, 336.583454)"><g><path d="M 1.625 0 L 1.625 -15.40625 L 11 -15.40625 L 11 -13.875 L 3.46875 -13.875 L 3.46875 -8.46875 L 9.875 -8.46875 L 9.875 -6.96875 L 3.46875 -6.96875 L 3.46875 0 Z M 1.625 0 "/></g></g></g><g fill="#ff7412" fill-opacity="1"><g transform="translate(106.795868, 336.583454)"><g><path d="M 8.625 0.265625 C 7.113281 0.265625 5.789062 -0.0664062 4.65625 -0.734375 C 3.519531 -1.398438 2.628906 -2.332031 1.984375 -3.53125 C 1.347656 -4.738281 1.03125 -6.128906 1.03125 -7.703125 C 1.03125 -9.265625 1.347656 -10.644531 1.984375 -11.84375 C 2.628906 -13.039062 3.519531 -13.972656 4.65625 -14.640625 C 5.789062 -15.316406 7.113281 -15.65625 8.625 -15.65625 C 10.144531 -15.65625 11.472656 -15.316406 12.609375 -14.640625 C 13.753906 -13.972656 14.640625 -13.039062 15.265625 -11.84375 C 15.898438 -10.644531 16.21875 -9.265625 16.21875 -7.703125 C 16.21875 -6.128906 15.898438 -4.738281 15.265625 -3.53125 C 14.640625 -2.332031 13.753906 -1.398438 12.609375 -0.734375 C 11.472656 -0.0664062 10.144531 0.265625 8.625 0.265625 Z M 8.625 -1.359375 C 9.75 -1.359375 10.738281 -1.609375 11.59375 -2.109375 C 12.457031 -2.617188 13.128906 -3.347656 13.609375 -4.296875 C 14.085938 -5.242188 14.328125 -6.378906 14.328125 -7.703125 C 14.328125 -9.023438 14.085938 -10.15625 13.609375 -11.09375 C 13.128906 -12.03125 12.457031 -12.75 11.59375 -13.25 C 10.738281 -13.757812 9.75 -14.015625 8.625 -14.015625 C 7.5 -14.015625 6.503906 -13.757812 5.640625 -13.25 C 4.785156 -12.75 4.117188 -12.03125 3.640625 -11.09375 C 3.160156 -10.15625 2.921875 -9.023438 2.921875 -7.703125 C 2.921875 -6.378906 3.160156 -5.242188 3.640625 -4.296875 C 4.117188 -3.347656 4.785156 -2.617188 5.640625 -2.109375 C 6.503906 -1.609375 7.5 -1.359375 8.625 -1.359375 Z M 8.625 -1.359375 "/></g></g></g><g fill="#ff7412" fill-opacity="1"><g transform="translate(126.548792, 336.583454)"><g><path d="M 8.625 0.265625 C 7.113281 0.265625 5.789062 -0.0664062 4.65625 -0.734375 C 3.519531 -1.398438 2.628906 -2.332031 1.984375 -3.53125 C 1.347656 -4.738281 1.03125 -6.128906 1.03125 -7.703125 C 1.03125 -9.265625 1.347656 -10.644531 1.984375 -11.84375 C 2.628906 -13.039062 3.519531 -13.972656 4.65625 -14.640625 C 5.789062 -15.316406 7.113281 -15.65625 8.625 -15.65625 C 10.144531 -15.65625 11.472656 -15.316406 12.609375 -14.640625 C 13.753906 -13.972656 14.640625 -13.039062 15.265625 -11.84375 C 15.898438 -10.644531 16.21875 -9.265625 16.21875 -7.703125 C 16.21875 -6.128906 15.898438 -4.738281 15.265625 -3.53125 C 14.640625 -2.332031 13.753906 -1.398438 12.609375 -0.734375 C 11.472656 -0.0664062 10.144531 0.265625 8.625 0.265625 Z M 8.625 -1.359375 C 9.75 -1.359375 10.738281 -1.609375 11.59375 -2.109375 C 12.457031 -2.617188 13.128906 -3.347656 13.609375 -4.296875 C 14.085938 -5.242188 14.328125 -6.378906 14.328125 -7.703125 C 14.328125 -9.023438 14.085938 -10.15625 13.609375 -11.09375 C 13.128906 -12.03125 12.457031 -12.75 11.59375 -13.25 C 10.738281 -13.757812 9.75 -14.015625 8.625 -14.015625 C 7.5 -14.015625 6.503906 -13.757812 5.640625 -13.25 C 4.785156 -12.75 4.117188 -12.03125 3.640625 -11.09375 C 3.160156 -10.15625 2.921875 -9.023438 2.921875 -7.703125 C 2.921875 -6.378906 3.160156 -5.242188 3.640625 -4.296875 C 4.117188 -3.347656 4.785156 -2.617188 5.640625 -2.109375 C 6.503906 -1.609375 7.5 -1.359375 8.625 -1.359375 Z M 8.625 -1.359375 "/></g></g></g><g fill="#ff7412" fill-opacity="1"><g transform="translate(146.301723, 336.583454)"><g><path d="M 1.625 0 L 1.625 -15.40625 L 6.359375 -15.40625 C 9.066406 -15.40625 11.0625 -14.710938 12.34375 -13.328125 C 13.632812 -11.953125 14.28125 -10.0625 14.28125 -7.65625 C 14.28125 -5.289062 13.632812 -3.421875 12.34375 -2.046875 C 11.0625 -0.679688 9.066406 0 6.359375 0 Z M 3.46875 -1.546875 L 6.3125 -1.546875 C 7.8125 -1.546875 9.003906 -1.789062 9.890625 -2.28125 C 10.773438 -2.769531 11.40625 -3.472656 11.78125 -4.390625 C 12.164062 -5.304688 12.359375 -6.394531 12.359375 -7.65625 C 12.359375 -8.945312 12.164062 -10.050781 11.78125 -10.96875 C 11.40625 -11.894531 10.773438 -12.609375 9.890625 -13.109375 C 9.003906 -13.609375 7.8125 -13.859375 6.3125 -13.859375 L 3.46875 -13.859375 Z M 3.46875 -1.546875 "/></g></g></g><g fill="#ff7412" fill-opacity="1"><g transform="translate(164.118994, 336.583454)"><g/></g></g><g fill="#ff7412" fill-opacity="1"><g transform="translate(172.455945, 336.583454)"><g><path d="M 1.625 0 L 1.625 -15.40625 L 6.59375 -15.40625 C 7.800781 -15.40625 8.785156 -15.207031 9.546875 -14.8125 C 10.304688 -14.414062 10.867188 -13.867188 11.234375 -13.171875 C 11.609375 -12.484375 11.796875 -11.722656 11.796875 -10.890625 C 11.796875 -9.921875 11.535156 -9.046875 11.015625 -8.265625 C 10.492188 -7.492188 9.679688 -6.945312 8.578125 -6.625 L 11.953125 0 L 9.765625 0 L 6.640625 -6.359375 L 3.46875 -6.359375 L 3.46875 0 Z M 3.46875 -7.8125 L 6.46875 -7.8125 C 7.65625 -7.8125 8.519531 -8.097656 9.0625 -8.671875 C 9.601562 -9.242188 9.875 -9.976562 9.875 -10.875 C 9.875 -11.78125 9.601562 -12.5 9.0625 -13.03125 C 8.53125 -13.570312 7.660156 -13.84375 6.453125 -13.84375 L 3.46875 -13.84375 Z M 3.46875 -7.8125 "/></g></g></g><g fill="#ff7412" fill-opacity="1"><g transform="translate(188.007618, 336.583454)"><g><path d="M 1.625 0 L 1.625 -15.40625 L 11.15625 -15.40625 L 11.15625 -13.875 L 3.46875 -13.875 L 3.46875 -8.515625 L 10.5 -8.515625 L 10.5 -7.015625 L 3.46875 -7.015625 L 3.46875 -1.515625 L 11.15625 -1.515625 L 11.15625 0 Z M 1.625 0 "/></g></g></g><g fill="#ff7412" fill-opacity="1"><g transform="translate(202.921397, 336.583454)"><g><path d="M 6.53125 0.265625 C 5.40625 0.265625 4.421875 0.0625 3.578125 -0.34375 C 2.742188 -0.757812 2.097656 -1.332031 1.640625 -2.0625 C 1.191406 -2.800781 0.96875 -3.65625 0.96875 -4.625 L 2.90625 -4.625 C 2.90625 -4.019531 3.039062 -3.460938 3.3125 -2.953125 C 3.59375 -2.453125 4 -2.050781 4.53125 -1.75 C 5.070312 -1.445312 5.738281 -1.296875 6.53125 -1.296875 C 7.570312 -1.296875 8.378906 -1.546875 8.953125 -2.046875 C 9.523438 -2.546875 9.8125 -3.171875 9.8125 -3.921875 C 9.8125 -4.535156 9.675781 -5.03125 9.40625 -5.40625 C 9.144531 -5.78125 8.789062 -6.082031 8.34375 -6.3125 C 7.894531 -6.550781 7.378906 -6.753906 6.796875 -6.921875 C 6.222656 -7.097656 5.625 -7.300781 5 -7.53125 C 3.8125 -7.9375 2.929688 -8.441406 2.359375 -9.046875 C 1.785156 -9.660156 1.5 -10.457031 1.5 -11.4375 C 1.476562 -12.257812 1.664062 -12.988281 2.0625 -13.625 C 2.457031 -14.269531 3.019531 -14.769531 3.75 -15.125 C 4.476562 -15.476562 5.34375 -15.65625 6.34375 -15.65625 C 7.320312 -15.65625 8.171875 -15.472656 8.890625 -15.109375 C 9.617188 -14.742188 10.1875 -14.238281 10.59375 -13.59375 C 11 -12.945312 11.207031 -12.210938 11.21875 -11.390625 L 9.28125 -11.390625 C 9.28125 -11.816406 9.171875 -12.238281 8.953125 -12.65625 C 8.734375 -13.070312 8.398438 -13.410156 7.953125 -13.671875 C 7.503906 -13.941406 6.941406 -14.078125 6.265625 -14.078125 C 5.429688 -14.097656 4.742188 -13.882812 4.203125 -13.4375 C 3.671875 -13 3.40625 -12.390625 3.40625 -11.609375 C 3.40625 -10.953125 3.59375 -10.445312 3.96875 -10.09375 C 4.34375 -9.738281 4.867188 -9.445312 5.546875 -9.21875 C 6.222656 -9 7 -8.742188 7.875 -8.453125 C 8.601562 -8.179688 9.257812 -7.867188 9.84375 -7.515625 C 10.4375 -7.171875 10.894531 -6.71875 11.21875 -6.15625 C 11.550781 -5.601562 11.71875 -4.894531 11.71875 -4.03125 C 11.71875 -3.289062 11.523438 -2.59375 11.140625 -1.9375 C 10.765625 -1.289062 10.191406 -0.757812 9.421875 -0.34375 C 8.648438 0.0625 7.6875 0.265625 6.53125 0.265625 Z M 6.53125 0.265625 "/></g></g></g><g fill="#ff7412" fill-opacity="1"><g transform="translate(218.143125, 336.583454)"><g><path d="M 5.234375 0 L 5.234375 -13.875 L 0.640625 -13.875 L 0.640625 -15.40625 L 11.6875 -15.40625 L 11.6875 -13.875 L 7.078125 -13.875 L 7.078125 0 Z M 5.234375 0 "/></g></g></g><g fill="#ff7412" fill-opacity="1"><g transform="translate(232.968923, 336.583454)"><g><path d="M 0.65625 0 L 6.34375 -15.40625 L 8.296875 -15.40625 L 13.953125 0 L 11.984375 0 L 10.578125 -3.953125 L 4.03125 -3.953125 L 2.59375 0 Z M 4.578125 -5.453125 L 10.03125 -5.453125 L 7.296875 -13.0625 Z M 4.578125 -5.453125 "/></g></g></g><g fill="#ff7412" fill-opacity="1"><g transform="translate(250.082325, 336.583454)"><g><path d="M 7.1875 0.265625 C 6.132812 0.265625 5.175781 0.0546875 4.3125 -0.359375 C 3.457031 -0.773438 2.773438 -1.421875 2.265625 -2.296875 C 1.753906 -3.179688 1.5 -4.304688 1.5 -5.671875 L 1.5 -15.40625 L 3.34375 -15.40625 L 3.34375 -5.65625 C 3.34375 -4.15625 3.703125 -3.066406 4.421875 -2.390625 C 5.140625 -1.722656 6.078125 -1.390625 7.234375 -1.390625 C 8.390625 -1.390625 9.320312 -1.722656 10.03125 -2.390625 C 10.738281 -3.066406 11.09375 -4.15625 11.09375 -5.65625 L 11.09375 -15.40625 L 12.9375 -15.40625 L 12.9375 -5.671875 C 12.9375 -4.304688 12.675781 -3.179688 12.15625 -2.296875 C 11.644531 -1.421875 10.957031 -0.773438 10.09375 -0.359375 C 9.226562 0.0546875 8.257812 0.265625 7.1875 0.265625 Z M 7.1875 0.265625 "/></g></g></g><g fill="#ff7412" fill-opacity="1"><g transform="translate(267.019763, 336.583454)"><g><path d="M 1.625 0 L 1.625 -15.40625 L 6.59375 -15.40625 C 7.800781 -15.40625 8.785156 -15.207031 9.546875 -14.8125 C 10.304688 -14.414062 10.867188 -13.867188 11.234375 -13.171875 C 11.609375 -12.484375 11.796875 -11.722656 11.796875 -10.890625 C 11.796875 -9.921875 11.535156 -9.046875 11.015625 -8.265625 C 10.492188 -7.492188 9.679688 -6.945312 8.578125 -6.625 L 11.953125 0 L 9.765625 0 L 6.640625 -6.359375 L 3.46875 -6.359375 L 3.46875 0 Z M 3.46875 -7.8125 L 6.46875 -7.8125 C 7.65625 -7.8125 8.519531 -8.097656 9.0625 -8.671875 C 9.601562 -9.242188 9.875 -9.976562 9.875 -10.875 C 9.875 -11.78125 9.601562 -12.5 9.0625 -13.03125 C 8.53125 -13.570312 7.660156 -13.84375 6.453125 -13.84375 L 3.46875 -13.84375 Z M 3.46875 -7.8125 "/></g></g></g><g fill="#ff7412" fill-opacity="1"><g transform="translate(282.571435, 336.583454)"><g><path d="M 0.65625 0 L 6.34375 -15.40625 L 8.296875 -15.40625 L 13.953125 0 L 11.984375 0 L 10.578125 -3.953125 L 4.03125 -3.953125 L 2.59375 0 Z M 4.578125 -5.453125 L 10.03125 -5.453125 L 7.296875 -13.0625 Z M 4.578125 -5.453125 "/></g></g></g><g fill="#ff7412" fill-opacity="1"><g transform="translate(299.684837, 336.583454)"><g><path d="M 1.625 0 L 1.625 -15.40625 L 3.46875 -15.40625 L 11.6875 -3.0625 L 11.6875 -15.40625 L 13.53125 -15.40625 L 13.53125 0 L 11.6875 0 L 3.46875 -12.34375 L 3.46875 0 Z M 1.625 0 "/></g></g></g><g fill="#ff7412" fill-opacity="1"><g transform="translate(317.348128, 336.583454)"><g><path d="M 5.234375 0 L 5.234375 -13.875 L 0.640625 -13.875 L 0.640625 -15.40625 L 11.6875 -15.40625 L 11.6875 -13.875 L 7.078125 -13.875 L 7.078125 0 Z M 5.234375 0 "/></g></g></g></svg>