<svg id="visual" viewBox="0 0 900 600" width="900" height="600" xmlns="http://www.w3.org/2000/svg" xmlns:xlink="http://www.w3.org/1999/xlink" version="1.1"><path d="M0 61L82 67L164 133L245 91L327 115L409 97L491 127L573 91L655 97L736 145L818 145L900 67L900 0L818 0L736 0L655 0L573 0L491 0L409 0L327 0L245 0L164 0L82 0L0 0Z" fill="#ffcc88"></path><path d="M0 151L82 223L164 265L245 331L327 253L409 331L491 313L573 199L655 235L736 265L818 325L900 295L900 65L818 143L736 143L655 95L573 89L491 125L409 95L327 113L245 89L164 131L82 65L0 59Z" fill="#febb6b"></path><path d="M0 235L82 283L164 313L245 415L327 373L409 445L491 385L573 253L655 319L736 361L818 385L900 367L900 293L818 323L736 263L655 233L573 197L491 311L409 329L327 251L245 329L164 263L82 221L0 149Z" fill="#fda950"></path><path d="M0 517L82 517L164 499L245 565L327 541L409 559L491 523L573 517L655 547L736 553L818 541L900 547L900 365L818 383L736 359L655 317L573 251L491 383L409 443L327 371L245 413L164 311L82 281L0 233Z" fill="#fc9535"></path><path d="M0 601L82 601L164 601L245 601L327 601L409 601L491 601L573 601L655 601L736 601L818 601L900 601L900 545L818 539L736 551L655 545L573 515L491 521L409 557L327 539L245 563L164 497L82 515L0 515Z" fill="#fc8019"></path></svg>