<svg xmlns="http://www.w3.org/2000/svg" xmlns:xlink="http://www.w3.org/1999/xlink" width="500" zoomAndPan="magnify" viewBox="0 0 375 374.999991" height="500" preserveAspectRatio="xMidYMid meet" version="1.0"><path fill="#893616" d="M 289.066406 90.300781 C 281.992188 87.226562 273.847656 85.101562 264.660156 84.246094 C 256.210938 83.464844 246.867188 83.753906 236.667969 85.410156 C 233.429688 85.929688 230.316406 86.429688 227.292969 86.921875 C 186.152344 93.648438 164.386719 97.199219 118.675781 82.835938 C 111.925781 80.710938 106.113281 78.421875 100.574219 76.214844 C 93.320312 73.355469 86.492188 70.652344 78.671875 68.707031 C 77.6875 68.480469 84.976562 71.613281 92.707031 75.605469 C 101.25 80.023438 111.21875 84.582031 117.753906 86.632812 C 128.890625 90.132812 140.777344 93.710938 152.175781 95.589844 C 163.421875 97.441406 174.171875 97.65625 185.753906 97.074219 C 198.578125 96.433594 211.800781 94.382812 228.078125 91.722656 C 231.097656 91.234375 234.210938 90.726562 237.449219 90.207031 C 247.234375 88.636719 256.148438 88.34375 264.203125 89.09375 C 272.820312 89.886719 280.460938 91.890625 287.101562 94.78125 C 297.179688 99.171875 304.710938 105.59375 309.941406 112.933594 C 322.457031 130.457031 320.925781 159.804688 302.058594 172.574219 C 296.335938 176.441406 291.121094 177.835938 291.121094 177.835938 C 291.121094 177.835938 291.136719 177.820312 291.152344 177.820312 C 295.0625 177.222656 298.730469 176 302.074219 174.273438 C 306.277344 172.085938 309.867188 169.210938 312.839844 165.828125 C 328.074219 148.425781 324.992188 122.078125 310.1875 105.394531 C 304.511719 99.003906 297.257812 93.863281 289.066406 90.300781 Z M 295.417969 34.390625 C 288.359375 28.949219 280.753906 24.113281 272.777344 19.972656 C 264.675781 15.75 256.191406 12.234375 247.527344 9.464844 C 246.558594 9.160156 245.546875 8.835938 244.460938 8.515625 C 243.414062 8.195312 242.371094 7.890625 241.34375 7.601562 C 240.285156 7.292969 239.242188 7.003906 238.1875 6.710938 C 237.125 6.421875 236.050781 6.144531 235.011719 5.871094 C 233.507812 5.488281 232.003906 5.121094 230.53125 4.785156 C 229.058594 4.449219 227.554688 4.113281 226.035156 3.804688 C 224.546875 3.5 223.042969 3.210938 221.539062 2.949219 C 220.023438 2.675781 218.503906 2.414062 216.984375 2.1875 C 215.46875 1.957031 213.949219 1.742188 212.429688 1.542969 C 210.910156 1.347656 209.390625 1.160156 207.859375 1.007812 C 206.308594 0.839844 204.777344 0.703125 203.257812 0.578125 C 201.753906 0.472656 200.21875 0.367188 198.683594 0.273438 C 197.136719 0.199219 195.601562 0.136719 194.082031 0.0898438 C 192.535156 0.0429688 191 0.015625 189.46875 0 C 187.933594 0 186.398438 0 184.847656 0.03125 C 183.316406 0.0585938 181.78125 0.105469 180.246094 0.183594 C 178.730469 0.246094 177.195312 0.335938 175.648438 0.445312 C 174.128906 0.535156 172.578125 0.65625 171.011719 0.808594 C 169.464844 0.945312 167.929688 1.117188 166.410156 1.285156 C 164.863281 1.46875 163.328125 1.667969 161.808594 1.882812 C 160.261719 2.09375 158.726562 2.339844 157.207031 2.582031 C 155.671875 2.84375 154.15625 3.117188 152.652344 3.394531 C 151.148438 3.683594 149.628906 3.992188 148.128906 4.328125 C 146.640625 4.648438 145.121094 4.984375 143.617188 5.351562 C 142.082031 5.71875 140.59375 6.101562 139.136719 6.5 C 114.976562 12.964844 92.292969 24.253906 72.550781 39.558594 C 71.320312 40.523438 70.125 41.472656 68.960938 42.417969 C 67.777344 43.382812 66.613281 44.363281 65.433594 45.371094 C 64.28125 46.367188 63.132812 47.375 61.996094 48.398438 C 60.84375 49.441406 59.710938 50.480469 58.605469 51.519531 C 57.5 52.574219 56.398438 53.644531 55.324219 54.730469 C 54.21875 55.816406 53.144531 56.902344 52.101562 58.003906 C 51.058594 59.089844 50.015625 60.203125 48.972656 61.351562 C 47.945312 62.484375 46.917969 63.644531 45.90625 64.808594 C 44.890625 65.988281 43.894531 67.164062 42.929688 68.328125 C 41.960938 69.503906 40.996094 70.695312 40.046875 71.921875 C 39.109375 73.128906 38.171875 74.351562 37.253906 75.589844 C 36.332031 76.828125 35.429688 78.066406 34.554688 79.304688 C 33.648438 80.574219 32.773438 81.84375 31.929688 83.097656 C 31.085938 84.367188 30.242188 85.667969 29.414062 86.964844 C 28.601562 88.253906 27.789062 89.550781 26.992188 90.882812 C 26.207031 92.195312 25.425781 93.527344 24.660156 94.875 L 24.507812 95.148438 C 23.785156 96.402344 23.09375 97.65625 22.421875 98.910156 C 21.699219 100.253906 20.992188 101.632812 20.289062 103.007812 C 19.597656 104.386719 18.921875 105.761719 18.277344 107.136719 C 17.621094 108.5 16.972656 109.90625 16.332031 111.34375 C 15.714844 112.75 15.101562 114.15625 14.519531 115.566406 C 13.921875 117 13.339844 118.425781 12.785156 119.859375 C 12.234375 121.296875 11.699219 122.753906 11.160156 124.203125 C 10.640625 125.65625 10.132812 127.109375 9.65625 128.546875 C 9.167969 130.03125 8.707031 131.484375 8.261719 132.953125 C 7.816406 134.390625 7.386719 135.875 6.972656 137.386719 C 6.558594 138.855469 6.160156 140.351562 5.777344 141.835938 C 5.410156 143.351562 5.039062 144.832031 4.703125 146.316406 C 4.367188 147.816406 4.042969 149.3125 3.753906 150.828125 C 3.445312 152.34375 3.152344 153.855469 2.894531 155.371094 C 2.632812 156.867188 2.386719 158.398438 2.15625 159.910156 C 1.925781 161.441406 1.710938 162.96875 1.527344 164.484375 C 1.34375 165.984375 1.160156 167.511719 1.007812 169.058594 C 0.851562 170.585938 0.730469 172.117188 0.609375 173.628906 C 0.5 175.171875 0.394531 176.703125 0.316406 178.234375 C 0.238281 179.761719 0.195312 181.292969 0.148438 182.820312 C 0.117188 184.335938 0.0859375 185.863281 0.0859375 187.410156 C 0.0859375 188.921875 0.101562 190.464844 0.148438 192.011719 C 0.179688 193.554688 0.238281 195.085938 0.300781 196.597656 C 0.378906 198.097656 0.46875 199.625 0.59375 201.171875 C 0.699219 202.683594 0.824219 204.214844 0.976562 205.726562 C 1.128906 207.257812 1.296875 208.785156 1.480469 210.300781 C 1.664062 211.816406 1.878906 213.328125 2.109375 214.859375 C 2.324219 216.355469 2.570312 217.871094 2.832031 219.367188 C 3.109375 220.914062 3.382812 222.414062 3.675781 223.894531 C 3.964844 225.378906 4.289062 226.863281 4.625 228.378906 C 4.964844 229.875 5.332031 231.375 5.699219 232.839844 C 6.070312 234.339844 6.46875 235.824219 6.867188 237.292969 C 7.28125 238.761719 7.710938 240.242188 8.15625 241.710938 C 8.597656 243.164062 9.058594 244.632812 9.550781 246.085938 C 10.027344 247.539062 10.53125 248.976562 11.054688 250.441406 C 11.574219 251.867188 12.113281 253.316406 12.664062 254.769531 C 13.230469 256.222656 13.816406 257.660156 14.398438 259.066406 C 14.980469 260.488281 15.59375 261.914062 16.207031 263.320312 C 16.851562 264.742188 17.496094 266.148438 18.15625 267.539062 C 18.816406 268.929688 19.492188 270.324219 20.164062 271.683594 C 20.855469 273.046875 21.578125 274.421875 22.296875 275.785156 C 23.019531 277.128906 23.753906 278.472656 24.523438 279.820312 C 25.289062 281.179688 26.070312 282.511719 26.835938 283.796875 C 27.621094 285.109375 28.417969 286.410156 29.261719 287.726562 C 30.074219 289.027344 30.902344 290.296875 31.746094 291.566406 C 32.605469 292.847656 33.480469 294.117188 34.355469 295.371094 C 35.242188 296.613281 36.132812 297.851562 37.054688 299.089844 C 37.957031 300.3125 38.894531 301.535156 39.832031 302.742188 C 40.796875 303.980469 41.75 305.175781 42.714844 306.335938 C 43.664062 307.511719 44.648438 308.675781 45.660156 309.855469 C 46.65625 311 47.667969 312.148438 48.695312 313.265625 C 49.738281 314.425781 50.78125 315.542969 51.828125 316.644531 C 52.882812 317.746094 53.957031 318.847656 55.046875 319.933594 C 56.136719 321.019531 57.226562 322.085938 58.328125 323.144531 C 59.417969 324.183594 60.554688 325.222656 61.703125 326.261719 C 62.839844 327.289062 63.988281 328.296875 65.15625 329.304688 C 66.335938 330.332031 67.519531 331.324219 68.683594 332.273438 C 69.863281 333.25 71.078125 334.199219 72.289062 335.148438 C 73.5 336.097656 74.726562 337.027344 75.96875 337.945312 C 77.210938 338.863281 78.457031 339.765625 79.699219 340.636719 C 80.972656 341.539062 82.242188 342.398438 83.503906 343.238281 C 84.773438 344.09375 86.078125 344.933594 87.382812 345.761719 C 88.671875 346.570312 89.992188 347.382812 91.308594 348.175781 C 92.644531 348.972656 93.976562 349.738281 95.3125 350.5 C 96.648438 351.25 98.011719 352 99.363281 352.71875 C 100.710938 353.4375 102.09375 354.15625 103.472656 354.84375 C 104.855469 355.546875 106.234375 356.21875 107.617188 356.863281 C 108.996094 357.519531 110.40625 358.164062 111.832031 358.789062 C 113.246094 359.417969 114.65625 360.03125 116.082031 360.609375 C 117.507812 361.207031 118.953125 361.773438 120.394531 362.339844 C 121.820312 362.890625 123.277344 363.421875 124.734375 363.945312 C 126.191406 364.464844 127.648438 364.96875 129.105469 365.457031 C 130.578125 365.933594 132.050781 366.40625 133.507812 366.847656 C 134.964844 367.292969 136.4375 367.71875 137.957031 368.132812 C 139.429688 368.546875 140.933594 368.945312 142.421875 369.3125 C 143.925781 369.695312 145.425781 370.046875 146.929688 370.382812 C 148.417969 370.71875 149.921875 371.039062 151.4375 371.34375 C 152.957031 371.652344 154.476562 371.925781 155.996094 372.199219 C 157.5 372.460938 159.019531 372.707031 160.550781 372.9375 C 162.085938 373.164062 163.605469 373.363281 165.125 373.5625 C 166.640625 373.746094 168.175781 373.914062 169.722656 374.066406 C 171.257812 374.21875 172.792969 374.355469 174.3125 374.464844 C 175.859375 374.585938 177.394531 374.679688 178.929688 374.753906 C 180.460938 374.832031 181.996094 374.894531 183.53125 374.9375 C 185.050781 374.96875 186.582031 375 188.132812 375 C 189.652344 375 191.199219 374.984375 192.75 374.9375 C 194.296875 374.910156 195.847656 374.847656 197.351562 374.769531 C 198.871094 374.710938 200.386719 374.601562 201.9375 374.496094 C 203.457031 374.386719 204.988281 374.25 206.507812 374.113281 C 208.042969 373.960938 209.578125 373.792969 211.09375 373.59375 C 212.613281 373.410156 214.132812 373.210938 215.667969 372.980469 C 217.171875 372.75 218.6875 372.523438 220.191406 372.246094 C 221.742188 371.988281 223.257812 371.710938 224.730469 371.40625 C 226.21875 371.117188 227.722656 370.808594 229.226562 370.457031 C 230.730469 370.121094 232.234375 369.769531 233.707031 369.402344 C 235.207031 369.035156 236.679688 368.640625 238.167969 368.226562 C 239.65625 367.828125 241.128906 367.398438 242.601562 366.941406 C 244.058594 366.511719 245.53125 366.039062 246.988281 365.566406 C 248.429688 365.089844 249.886719 364.585938 251.363281 364.066406 C 252.789062 363.546875 254.246094 363.011719 255.703125 362.445312 C 257.160156 361.894531 258.601562 361.3125 260.011719 360.730469 C 261.4375 360.152344 262.867188 359.539062 264.277344 358.910156 C 265.703125 358.285156 267.113281 357.644531 268.511719 356.984375 C 269.90625 356.328125 271.285156 355.65625 272.667969 354.964844 C 274.035156 354.277344 275.398438 353.574219 276.765625 352.855469 C 278.113281 352.136719 279.476562 351.402344 280.828125 350.640625 C 282.191406 349.875 283.527344 349.09375 284.832031 348.332031 C 286.136719 347.550781 287.4375 346.738281 288.757812 345.914062 C 290.0625 345.105469 291.351562 344.261719 292.609375 343.421875 C 293.898438 342.566406 295.171875 341.707031 296.429688 340.820312 C 297.671875 339.949219 298.929688 339.046875 300.15625 338.144531 C 301.398438 337.242188 302.609375 336.3125 303.824219 335.375 C 305.066406 334.414062 306.261719 333.464844 307.425781 332.503906 C 308.609375 331.554688 309.773438 330.5625 310.953125 329.566406 C 312.105469 328.558594 313.257812 327.5625 314.390625 326.539062 C 315.542969 325.5 316.660156 324.460938 317.765625 323.402344 C 318.886719 322.363281 319.976562 321.292969 321.0625 320.207031 C 322.167969 319.121094 323.226562 318.019531 324.285156 316.933594 C 325.328125 315.835938 326.371094 314.714844 327.414062 313.570312 C 328.441406 312.4375 329.46875 311.292969 330.480469 310.128906 C 331.492188 308.9375 332.492188 307.773438 333.441406 306.597656 C 334.425781 305.433594 335.375 304.226562 336.324219 303.019531 C 337.277344 301.808594 338.214844 300.585938 339.132812 299.347656 C 340.050781 298.109375 340.957031 296.871094 341.835938 295.632812 C 342.738281 294.347656 343.613281 293.078125 344.457031 291.824219 C 345.300781 290.554688 346.144531 289.269531 346.972656 287.96875 C 347.785156 286.671875 348.597656 285.371094 349.394531 284.039062 C 350.195312 282.726562 350.960938 281.394531 351.726562 280.066406 C 352.476562 278.71875 353.230469 277.375 353.949219 276.027344 C 354.6875 274.667969 355.394531 273.304688 356.082031 271.929688 C 356.789062 270.550781 357.464844 269.175781 358.109375 267.800781 C 358.769531 266.421875 359.414062 265.015625 360.039062 263.59375 C 360.667969 262.1875 361.285156 260.78125 361.863281 259.359375 C 362.464844 257.9375 363.03125 256.5 363.597656 255.0625 C 364.074219 253.808594 364.550781 252.554688 365.023438 251.269531 C 365.488281 250 365.933594 248.730469 366.363281 247.460938 C 366.789062 246.175781 367.21875 244.894531 367.621094 243.609375 C 368.015625 242.351562 368.402344 241.054688 368.785156 239.738281 C 369.167969 238.4375 369.535156 237.140625 369.890625 235.839844 C 370.226562 234.539062 370.5625 233.238281 370.886719 231.9375 C 371.222656 230.609375 371.53125 229.292969 371.804688 228.007812 C 372.097656 226.726562 372.375 225.394531 372.648438 224.046875 C 373.277344 220.882812 373.832031 217.703125 374.308594 214.519531 C 374.765625 211.339844 375.148438 208.144531 375.457031 204.949219 C 375.765625 201.753906 375.980469 198.539062 376.113281 195.328125 C 376.253906 192.117188 376.316406 188.90625 376.285156 185.695312 C 376.253906 182.773438 376.160156 179.855469 375.996094 176.933594 C 375.871094 174.789062 375.71875 172.667969 375.519531 170.539062 C 375.535156 173.613281 375.488281 176.6875 375.378906 179.761719 C 375.164062 185.464844 374.738281 191.167969 374.09375 196.8125 C 373.230469 204.351562 371.992188 211.816406 370.351562 219.171875 C 368.722656 226.480469 366.710938 233.667969 364.304688 240.71875 C 361.863281 247.890625 359.011719 254.9375 355.761719 261.789062 C 352.554688 268.566406 348.9375 275.15625 344.929688 281.5625 C 340.972656 287.863281 336.632812 293.964844 331.90625 299.835938 C 327.261719 305.601562 322.242188 311.15625 316.828125 316.460938 C 314.820312 318.417969 312.792969 320.316406 310.722656 322.164062 C 308.671875 324.015625 306.566406 325.820312 304.390625 327.59375 C 302.226562 329.351562 300.050781 331.066406 297.824219 332.714844 C 295.632812 334.351562 293.359375 335.957031 291.042969 337.535156 C 288.757812 339.078125 286.429688 340.59375 284.066406 342.03125 C 281.71875 343.46875 279.324219 344.875 276.871094 346.234375 C 274.429688 347.582031 271.976562 348.863281 269.492188 350.101562 C 267.023438 351.328125 264.507812 352.503906 261.929688 353.636719 C 260.546875 354.25 259.167969 354.828125 257.804688 355.394531 C 256.390625 355.976562 254.996094 356.527344 253.632812 357.0625 C 252.25 357.597656 250.855469 358.101562 249.429688 358.621094 C 248.03125 359.109375 246.621094 359.601562 245.195312 360.074219 C 243.769531 360.53125 242.34375 360.992188 240.914062 361.421875 C 239.488281 361.847656 238.0625 362.261719 236.636719 362.660156 C 235.195312 363.058594 233.753906 363.4375 232.308594 363.789062 C 230.851562 364.160156 229.410156 364.511719 227.96875 364.832031 C 226.527344 365.152344 225.070312 365.457031 223.597656 365.75 C 222.109375 366.039062 220.652344 366.3125 219.222656 366.558594 C 217.75 366.820312 216.296875 367.046875 214.808594 367.261719 C 213.347656 367.492188 211.878906 367.691406 210.390625 367.859375 C 208.917969 368.042969 207.445312 368.210938 205.972656 368.347656 C 204.484375 368.5 202.996094 368.625 201.523438 368.730469 C 200.050781 368.835938 198.5625 368.929688 197.058594 369.003906 C 195.554688 369.082031 194.066406 369.128906 192.609375 369.15625 C 191.136719 369.203125 189.652344 369.21875 188.148438 369.21875 C 186.660156 369.21875 185.171875 369.1875 183.667969 369.15625 C 182.164062 369.113281 180.675781 369.066406 179.203125 368.992188 C 177.699219 368.914062 176.214844 368.824219 174.742188 368.714844 C 173.238281 368.59375 171.75 368.46875 170.277344 368.316406 C 168.820312 368.179688 167.332031 368.011719 165.828125 367.828125 C 164.339844 367.644531 162.867188 367.445312 161.394531 367.214844 C 159.921875 367.003906 158.449219 366.757812 156.976562 366.511719 C 155.503906 366.253906 154.03125 365.976562 152.574219 365.6875 C 151.117188 365.394531 149.660156 365.074219 148.1875 364.753906 C 146.730469 364.417969 145.273438 364.082031 143.832031 363.714844 C 142.390625 363.347656 140.933594 362.964844 139.507812 362.566406 C 138.09375 362.183594 136.652344 361.773438 135.195312 361.328125 C 133.753906 360.886719 132.328125 360.425781 130.917969 359.96875 C 129.488281 359.492188 128.0625 359.003906 126.667969 358.5 C 125.269531 358.011719 123.875 357.488281 122.480469 356.957031 C 121.054688 356.402344 119.671875 355.855469 118.320312 355.289062 C 116.925781 354.722656 115.5625 354.125 114.179688 353.515625 C 112.847656 352.933594 111.496094 352.304688 110.117188 351.664062 C 108.75 351.023438 107.402344 350.363281 106.082031 349.691406 C 104.730469 349.019531 103.398438 348.332031 102.078125 347.625 C 100.757812 346.921875 99.453125 346.203125 98.183594 345.46875 C 96.878906 344.75 95.589844 344.003906 94.316406 343.238281 C 93.042969 342.472656 91.769531 341.691406 90.496094 340.882812 C 89.238281 340.085938 87.980469 339.277344 86.738281 338.433594 C 85.496094 337.625 84.269531 336.785156 83.042969 335.910156 C 81.8125 335.054688 80.601562 334.183594 79.40625 333.296875 C 78.226562 332.425781 77.042969 331.523438 75.863281 330.605469 C 74.695312 329.703125 73.53125 328.769531 72.378906 327.824219 C 71.199219 326.859375 70.0625 325.898438 68.945312 324.949219 C 67.824219 323.984375 66.71875 322.992188 65.601562 321.996094 C 64.527344 321 63.421875 319.992188 62.332031 318.953125 C 61.261719 317.929688 60.1875 316.890625 59.144531 315.847656 C 58.101562 314.808594 57.058594 313.738281 56.027344 312.667969 C 55.015625 311.597656 54.003906 310.511719 53.007812 309.394531 C 51.996094 308.292969 51.011719 307.179688 50.046875 306.0625 C 49.078125 304.945312 48.128906 303.8125 47.164062 302.652344 C 46.210938 301.488281 45.292969 300.34375 44.402344 299.179688 C 43.480469 298.019531 42.589844 296.839844 41.703125 295.632812 C 40.8125 294.453125 39.953125 293.246094 39.09375 292.039062 C 38.234375 290.816406 37.40625 289.589844 36.578125 288.367188 C 35.75 287.128906 34.9375 285.875 34.140625 284.621094 C 33.355469 283.382812 32.574219 282.113281 31.808594 280.8125 C 31.027344 279.53125 30.273438 278.246094 29.554688 276.976562 C 28.832031 275.691406 28.109375 274.390625 27.40625 273.0625 C 26.714844 271.746094 26.027344 270.429688 25.351562 269.082031 C 24.675781 267.753906 24.015625 266.40625 23.386719 265.046875 C 22.742188 263.703125 22.113281 262.339844 21.515625 260.980469 C 20.289062 258.226562 19.136719 255.460938 18.078125 252.707031 C 17.003906 249.921875 15.992188 247.109375 15.058594 244.28125 C 14.121094 241.449219 13.246094 238.605469 12.464844 235.746094 C 11.652344 232.871094 10.929688 229.996094 10.285156 227.121094 C 9.628906 224.203125 9.042969 221.296875 8.539062 218.390625 C 8.03125 215.46875 7.601562 212.535156 7.234375 209.597656 C 6.867188 206.644531 6.574219 203.695312 6.359375 200.757812 C 6.144531 197.792969 6.007812 194.824219 5.929688 191.875 C 5.871094 188.90625 5.871094 185.925781 5.945312 182.957031 C 6.023438 179.976562 6.160156 177.007812 6.390625 174.058594 C 6.605469 171.089844 6.914062 168.125 7.28125 165.171875 C 7.648438 162.222656 8.09375 159.269531 8.597656 156.347656 C 9.121094 153.414062 9.703125 150.492188 10.363281 147.585938 C 11.023438 144.679688 11.742188 141.792969 12.542969 138.914062 C 13.339844 136.054688 14.214844 133.195312 15.164062 130.367188 C 16.101562 127.539062 17.113281 124.722656 18.1875 121.941406 C 18.738281 120.535156 19.292969 119.160156 19.84375 117.8125 C 20.425781 116.433594 21.023438 115.058594 21.621094 113.683594 C 22.222656 112.351562 22.851562 111.007812 23.492188 109.632812 C 24.136719 108.269531 24.796875 106.921875 25.472656 105.609375 C 26.148438 104.261719 26.835938 102.933594 27.542969 101.617188 C 28.25 100.300781 28.96875 99.003906 29.691406 97.71875 C 30.425781 96.433594 31.179688 95.148438 31.945312 93.878906 C 32.714844 92.609375 33.496094 91.339844 34.308594 90.070312 C 35.105469 88.816406 35.917969 87.578125 36.746094 86.324219 C 37.589844 85.070312 38.433594 83.847656 39.277344 82.640625 C 40.167969 81.402344 41.042969 80.191406 41.917969 79.015625 C 42.792969 77.839844 43.695312 76.660156 44.617188 75.480469 C 45.519531 74.320312 46.457031 73.15625 47.40625 71.996094 C 48.375 70.832031 49.339844 69.703125 50.292969 68.585938 C 51.257812 67.46875 52.253906 66.367188 53.253906 65.253906 C 54.234375 64.179688 55.246094 63.082031 56.289062 61.992188 C 57.332031 60.925781 58.359375 59.855469 59.417969 58.8125 C 60.460938 57.773438 61.535156 56.734375 62.609375 55.707031 C 63.683594 54.699219 64.773438 53.691406 65.875 52.695312 C 66.980469 51.703125 68.101562 50.710938 69.234375 49.746094 C 70.339844 48.78125 71.492188 47.835938 72.65625 46.871094 C 92.550781 30.644531 115.835938 18.730469 140.671875 12.0625 C 142.128906 11.683594 143.570312 11.316406 144.996094 10.964844 C 146.425781 10.613281 147.867188 10.292969 149.355469 9.96875 C 150.796875 9.648438 152.269531 9.359375 153.757812 9.070312 C 155.214844 8.792969 156.703125 8.535156 158.175781 8.289062 C 159.660156 8.027344 161.132812 7.8125 162.621094 7.601562 C 164.109375 7.386719 165.597656 7.203125 167.085938 7.019531 C 168.589844 6.851562 170.078125 6.699219 171.550781 6.558594 C 173.007812 6.421875 174.496094 6.296875 176 6.191406 C 177.488281 6.101562 178.972656 6.007812 180.492188 5.949219 C 181.980469 5.886719 183.46875 5.84375 184.957031 5.808594 C 186.460938 5.78125 187.949219 5.78125 189.421875 5.78125 C 190.925781 5.796875 192.414062 5.808594 193.886719 5.855469 C 195.386719 5.902344 196.875 5.964844 198.347656 6.054688 C 199.835938 6.128906 201.339844 6.238281 202.886719 6.359375 C 204.453125 6.5 206.003906 6.652344 207.550781 6.820312 C 209.132812 6.988281 210.726562 7.1875 212.320312 7.398438 C 213.902344 7.613281 215.496094 7.859375 217.109375 8.121094 C 218.734375 8.378906 220.34375 8.65625 221.96875 8.960938 C 223.550781 9.265625 225.175781 9.585938 226.820312 9.925781 C 228.429688 10.277344 230.054688 10.625 231.648438 11.007812 C 233.246094 11.394531 234.871094 11.789062 236.511719 12.21875 C 241.988281 13.65625 247.339844 15.277344 252.589844 17.140625 C 257.851562 19.007812 263.035156 21.132812 268.1875 23.59375 C 292.347656 35.109375 311.765625 53.460938 323.964844 73.769531 C 348.597656 114.785156 340.773438 174.121094 286.027344 180.175781 C 281.71875 180.648438 277.148438 180.648438 272.394531 180.097656 C 272.394531 180.097656 275.136719 181.0625 279.84375 181.628906 C 292.699219 183.15625 308.011719 179.148438 318.5625 171.886719 C 340.652344 156.65625 345.546875 128.132812 340.914062 103.332031 C 339.53125 95.898438 337.203125 88.621094 334.054688 81.769531 C 326.0625 64.410156 312.839844 47.816406 295.417969 34.390625 " fill-opacity="1" fill-rule="evenodd"/><path fill="#893616" d="M 117.539062 200.484375 C 122.585938 198.464844 126.621094 198.003906 131.605469 196.859375 C 134.320312 196.230469 137.464844 195.253906 135.578125 193.082031 C 120.640625 176.015625 126.804688 151.992188 132.035156 138.792969 C 132.894531 136.621094 130.488281 136.425781 127.554688 136.53125 C 116.835938 136.941406 100.804688 141.882812 91.324219 146.410156 C 86.0625 149.039062 83.929688 150.523438 84.929688 156.425781 C 87.121094 169.5625 93.089844 189.289062 109.316406 200.820312 C 111.710938 202.53125 114.519531 201.613281 117.539062 200.484375 Z M 104.625 209.261719 C 106.003906 207.226562 106.910156 205.132812 104.699219 203.402344 C 88.59375 190.878906 82.519531 170.875 80.21875 157.390625 C 79.453125 152.9375 75.324219 156.273438 70.894531 159.730469 C 61.320312 168.0625 54.171875 178.03125 49.480469 188.691406 C 47.117188 194.226562 47.929688 197.085938 52.347656 200.699219 C 61.105469 207.839844 74.925781 215.925781 94.5 218.695312 C 97.523438 219.109375 98.980469 217.960938 100.34375 215.957031 C 101.800781 213.804688 103.074219 211.523438 104.625 209.261719 Z M 98.550781 226.171875 C 98.410156 224.933594 97.996094 223.972656 96.21875 223.757812 C 96.035156 223.742188 95.835938 223.710938 95.652344 223.695312 C 74.007812 221.019531 58.757812 212.121094 49.171875 204.273438 C 46.121094 201.769531 45.121094 203.082031 44.433594 205.757812 C 41.949219 215.285156 42.578125 227.351562 44.890625 236.800781 C 45.582031 237.09375 45.597656 248.929688 56.71875 250.03125 C 67.5625 251.117188 83.117188 250.367188 98.320312 241.542969 C 100.3125 240.398438 100.972656 239.113281 100.710938 236.984375 C 100.296875 233.46875 99.011719 230.210938 98.550781 226.171875 Z M 106.15625 245.824219 C 105.054688 244.753906 103.582031 244.066406 101.050781 245.550781 C 84.390625 255.304688 67.304688 255.976562 55.585938 254.726562 C 52.300781 254.371094 53.46875 256.347656 55.0625 259.375 C 62.027344 269.3125 71.261719 276.667969 81.769531 281.65625 C 90.695312 285.644531 95.25 280.417969 101.15625 274.269531 C 106.171875 269.039062 110.332031 262.996094 113.90625 256.023438 C 114.59375 254.679688 114.027344 253.59375 113.167969 252.707031 C 110.851562 250.304688 108.597656 248.851562 106.15625 245.824219 Z M 211.570312 136.195312 C 238.03125 139.804688 276.515625 144.804688 287.007812 144.820312 C 289.617188 144.832031 287.960938 145.261719 286.75 145.582031 C 280.949219 147.066406 270.027344 148.167969 257.527344 148.839844 C 269.171875 151.820312 280.84375 154.726562 292.699219 157.050781 C 294.28125 157.355469 295.863281 157.664062 297.441406 157.957031 C 300.234375 158.460938 303.039062 158.949219 305.832031 159.4375 C 306.152344 159.5 306.445312 159.558594 306.660156 159.621094 C 306.660156 159.621094 306.566406 159.714844 306.445312 159.835938 C 290.476562 175.066406 243.539062 188.707031 222.355469 182.296875 C 222.171875 182.253906 223.457031 182.957031 225.421875 183.875 C 229.808594 185.894531 235.285156 187.253906 240.703125 187.605469 C 199.621094 198.554688 152.804688 204.183594 140.378906 190.984375 C 128.078125 177.925781 130.316406 159.742188 134.277344 146.941406 C 137.375 136.941406 142.988281 134.4375 152.773438 133.058594 C 156.441406 132.554688 160.550781 132.339844 164.863281 132.355469 C 180.277344 132.414062 196.492188 134.128906 211.570312 136.195312 Z M 153.464844 268.058594 C 194.144531 250.441406 201.601562 255.902344 192.765625 265.765625 C 185.816406 264.527344 173.296875 264.894531 153.464844 268.058594 Z M 138.125 289.453125 C 143.355469 286.289062 147.28125 280.140625 146.332031 273.917969 C 146.285156 273.59375 146.222656 273.273438 146.148438 272.96875 C 241.328125 255.839844 185.875 296.03125 138.125 289.453125 Z M 135.027344 264.984375 C 130.902344 262.417969 126.542969 260.261719 122.21875 258.042969 C 120.484375 257.292969 118.765625 257.1875 117.308594 259.910156 C 113.734375 266.59375 109.578125 272.449219 104.640625 277.601562 C 102.890625 279.421875 101.035156 281.164062 99.070312 282.800781 C 96.953125 284.589844 97.246094 286.503906 100.296875 287.574219 C 106.832031 289.867188 123 290.953125 130.027344 288.859375 C 141.929688 285.308594 147.039062 272.511719 135.027344 264.984375 Z M 210.632812 198.035156 C 210.710938 198.035156 239.136719 196.980469 258.0625 226.066406 C 258.265625 226.371094 254.09375 209.765625 241.621094 202.273438 C 227.199219 193.601562 210.175781 198.035156 210.632812 198.035156 Z M 180.261719 202.425781 C 180.339844 202.425781 208.78125 202.089844 226.972656 231.648438 C 227.171875 231.953125 223.414062 215.242188 211.125 207.441406 C 196.9375 198.417969 179.804688 202.425781 180.261719 202.425781 Z M 254.214844 148.363281 C 249.535156 148.363281 245.730469 152.160156 245.730469 156.824219 C 245.730469 161.488281 249.535156 165.277344 254.214844 165.277344 C 258.890625 165.277344 262.699219 161.488281 262.699219 156.824219 C 262.699219 152.160156 258.890625 148.363281 254.214844 148.363281 Z M 147.070312 203.785156 C 147.144531 203.785156 175.601562 203.34375 193.882812 232.828125 C 194.082031 233.132812 190.261719 216.449219 177.960938 208.679688 C 163.726562 199.703125 146.609375 203.785156 147.070312 203.785156 " fill-opacity="1" fill-rule="evenodd"/><path fill="#ffffff" d="M 254.152344 150.875 C 250.871094 150.875 248.214844 153.535156 248.214844 156.808594 C 248.214844 160.082031 250.871094 162.742188 254.152344 162.742188 C 257.449219 162.742188 260.101562 160.082031 260.101562 156.808594 C 260.101562 153.535156 257.449219 150.875 254.152344 150.875 " fill-opacity="1" fill-rule="evenodd"/></svg>